<?xml version="1.0" encoding="UTF-8"?>
<svg width="982px" height="170px" viewBox="0 0 982 170" version="1.1" xmlns="http://www.w3.org/2000/svg" xmlns:xlink="http://www.w3.org/1999/xlink">
    <title>Combined Shape</title>
    <defs>
        <linearGradient x1="-48.4530224%" y1="50%" x2="982.7633%" y2="50.405692%" id="linearGradient-1">
            <stop stop-color="#FFFFFF" offset="0%"></stop>
            <stop stop-color="#3A9FFE" offset="100%"></stop>
        </linearGradient>
    </defs>
    <g id="Page-1" stroke="none" stroke-width="1" fill="none" fill-rule="evenodd">
        <path d="M0.456,131 L0.456,2.115 L23.984,2.115 L23.984,58.34 L78.825,58.34 L78.825,2.115 L102.526,2.115 L102.526,131 L78.825,131 L78.825,79.1 L23.984,79.1 L23.984,131 L0.456,131 Z M162.677553,133.076 C152.989553,133.076 144.512553,130.884667 137.246553,126.502 C129.980553,122.119333 124.32922,116.179667 120.292553,108.683 C116.255886,101.186333 114.237553,92.8823333 114.237553,83.771 C114.237553,74.3136667 116.28472,65.9231667 120.379053,58.5995 C124.473386,51.2758333 130.067053,45.4803333 137.160053,41.213 C144.253053,36.9456667 152.18222,34.812 160.947553,34.812 C168.328886,34.812 174.816386,36.023 180.410053,38.445 C186.00372,40.867 190.76122,44.2116667 194.682553,48.479 C198.603886,52.7463333 201.602553,57.6191667 203.678553,63.0975 C205.754553,68.5758333 206.792553,74.4866667 206.792553,80.83 C206.792553,82.4446667 206.706053,84.117 206.533053,85.847 C206.360053,87.577 206.042886,89.0763333 205.581553,90.345 L132.921553,90.345 L132.921553,73.045 L192.779553,73.045 L182.053553,81.176 C183.091553,75.8706667 182.832053,71.142 181.275053,66.99 C179.718053,62.838 177.18072,59.551 173.663053,57.129 C170.145386,54.707 165.906886,53.496 160.947553,53.496 C156.218886,53.496 152.00922,54.6781667 148.318553,57.0425 C144.627886,59.4068333 141.831053,62.8668333 139.928053,67.4225 C138.025053,71.9781667 137.30422,77.4853333 137.765553,83.944 C137.30422,89.7106667 138.08272,94.8141667 140.101053,99.2545 C142.119386,103.694833 145.118053,107.126 149.097053,109.548 C153.076053,111.97 157.660553,113.181 162.850553,113.181 C168.040553,113.181 172.452053,112.085333 176.085053,109.894 C179.718053,107.702667 182.572553,104.761667 184.648553,101.071 L202.986553,110.067 C201.14122,114.565 198.257886,118.544 194.336553,122.004 C190.41522,125.464 185.773053,128.174333 180.410053,130.135 C175.047053,132.095667 169.13622,133.076 162.677553,133.076 Z M244.800106,133.076 C238.226106,133.076 232.517106,131.980333 227.673106,129.789 C222.829106,127.597667 219.080773,124.454833 216.428106,120.3605 C213.775439,116.266167 212.449106,111.508667 212.449106,106.088 C212.449106,100.898 213.602439,96.2558333 215.909106,92.1615 C218.215773,88.0671667 221.791106,84.636 226.635106,81.868 C231.479106,79.1 237.591773,77.1393333 244.973106,75.986 L275.767106,70.969 L275.767106,88.269 L249.298106,92.767 C244.800106,93.5743333 241.455439,95.016 239.264106,97.092 C237.072773,99.168 235.977106,101.878333 235.977106,105.223 C235.977106,108.452333 237.216939,111.0185 239.696606,112.9215 C242.176273,114.8245 245.261439,115.776 248.952106,115.776 C253.680773,115.776 257.861606,114.766833 261.494606,112.7485 C265.127606,110.730167 267.953273,107.933333 269.971606,104.358 C271.989939,100.782667 272.999106,96.8613333 272.999106,92.594 L272.999106,68.374 C272.999106,64.3373333 271.413273,60.9638333 268.241606,58.2535 C265.069939,55.5431667 260.889106,54.188 255.699106,54.188 C250.855106,54.188 246.558939,55.4855 242.810606,58.0805 C239.062273,60.6755 236.323106,64.1066667 234.593106,68.374 L216.082106,59.378 C217.927439,54.4186667 220.839606,50.1225 224.818606,46.4895 C228.797606,42.8565 233.497439,40.002 238.918106,37.926 C244.338773,35.85 250.220773,34.812 256.564106,34.812 C264.291439,34.812 271.096106,36.2248333 276.978106,39.0505 C282.860106,41.8761667 287.444606,45.7975 290.731606,50.8145 C294.018606,55.8315 295.662106,61.6846667 295.662106,68.374 L295.662106,131 L274.210106,131 L274.210106,114.911 L279.054106,114.565 C276.632106,118.601667 273.748773,121.975167 270.404106,124.6855 C267.059439,127.395833 263.253439,129.471833 258.986106,130.9135 C254.718773,132.355167 249.990106,133.076 244.800106,133.076 Z M309.276659,131 L309.276659,0.039 L331.939659,0.039 L331.939659,131 L309.276659,131 Z M345.554212,131 L345.554212,36.888 L368.217212,36.888 L368.217212,131 L345.554212,131 Z M345.554212,26.335 L345.554212,2.115 L368.217212,2.115 L368.217212,26.335 L345.554212,26.335 Z M381.831765,131 L381.831765,36.888 L403.110765,36.888 L403.110765,55.399 L401.380765,52.112 C403.572098,46.4606667 407.176265,42.1645 412.193265,39.2235 C417.210265,36.2825 423.063432,34.812 429.752765,34.812 C436.672765,34.812 442.814265,36.3113333 448.177265,39.31 C453.540265,42.3086667 457.721098,46.4895 460.719765,51.8525 C463.718432,57.2155 465.217765,63.4146667 465.217765,70.45 L465.217765,131 L442.554765,131 L442.554765,75.813 C442.554765,71.661 441.747432,68.0856667 440.132765,65.087 C438.518098,62.0883333 436.297932,59.7528333 433.472265,58.0805 C430.646598,56.4081667 427.330765,55.572 423.524765,55.572 C419.834098,55.572 416.547098,56.4081667 413.663765,58.0805 C410.780432,59.7528333 408.531432,62.0883333 406.916765,65.087 C405.302098,68.0856667 404.494765,71.661 404.494765,75.813 L404.494765,131 L381.831765,131 Z M522.774318,169.06 C515.738985,169.06 509.222651,167.906667 503.225318,165.6 C497.227985,163.293333 492.066818,160.092833 487.741818,155.9985 C483.416818,151.904167 480.273985,147.089 478.313318,141.553 L499.419318,133.595 C500.803318,137.977667 503.542485,141.524167 507.636818,144.2345 C511.731151,146.944833 516.776985,148.3 522.774318,148.3 C527.387651,148.3 531.453151,147.435 534.970818,145.705 C538.488485,143.975 541.227651,141.4665 543.188318,138.1795 C545.148985,134.8925 546.129318,130.942333 546.129318,126.329 L546.129318,104.877 L550.454318,110.067 C547.224985,115.718333 542.899985,119.985667 537.479318,122.869 C532.058651,125.752333 525.888318,127.194 518.968318,127.194 C510.202985,127.194 502.360318,125.175667 495.440318,121.139 C488.520318,117.102333 483.099651,111.566333 479.178318,104.531 C475.256985,97.4956667 473.296318,89.5953333 473.296318,80.83 C473.296318,71.9493333 475.256985,64.049 479.178318,57.129 C483.099651,50.209 488.462651,44.7595 495.267318,40.7805 C502.071985,36.8015 509.799318,34.812 518.449318,34.812 C525.484651,34.812 531.683818,36.2825 537.046818,39.2235 C542.409818,42.1645 546.878985,46.403 550.454318,51.939 L547.340318,57.648 L547.340318,36.888 L568.792318,36.888 L568.792318,126.329 C568.792318,134.517667 566.802818,141.841333 562.823818,148.3 C558.844818,154.758667 553.424151,159.833333 546.561818,163.524 C539.699485,167.214667 531.770318,169.06 522.774318,169.06 Z M521.736318,106.261 C526.580318,106.261 530.818818,105.194167 534.451818,103.0605 C538.084818,100.926833 540.939318,97.957 543.015318,94.151 C545.091318,90.345 546.129318,85.9623333 546.129318,81.003 C546.129318,76.159 545.062485,71.8051667 542.928818,67.9415 C540.795151,64.0778333 537.911818,61.0503333 534.278818,58.859 C530.645818,56.6676667 526.464985,55.572 521.736318,55.572 C517.007651,55.572 512.740318,56.6676667 508.934318,58.859 C505.128318,61.0503333 502.158485,64.0778333 500.024818,67.9415 C497.891151,71.8051667 496.824318,76.159 496.824318,81.003 C496.824318,85.847 497.891151,90.172 500.024818,93.978 C502.158485,97.784 505.099485,100.782667 508.847818,102.974 C512.596151,105.165333 516.892318,106.261 521.736318,106.261 Z M584.482871,131 L584.482871,2.115 L670.117871,2.115 L670.117871,22.875 L608.010871,22.875 L608.010871,55.918 L666.657871,55.918 L666.657871,76.678 L608.010871,76.678 L608.010871,110.24 L670.117871,110.24 L670.117871,131 L584.482871,131 Z M721.965424,133.076 C712.854091,133.076 704.723091,130.9135 697.572424,126.5885 C690.421757,122.2635 684.770424,116.352667 680.618424,108.856 C676.466424,101.359333 674.390424,93.0553333 674.390424,83.944 C674.390424,74.7173333 676.466424,66.4133333 680.618424,59.032 C684.770424,51.6506667 690.450591,45.7686667 697.658924,41.386 C704.867257,37.0033333 712.911757,34.812 721.792424,34.812 C728.943091,34.812 735.315257,36.2248333 740.908924,39.0505 C746.502591,41.8761667 750.914091,45.8263333 754.143424,50.901 L750.683424,55.572 L750.683424,0.039 L773.346424,0.039 L773.346424,131 L751.894424,131 L751.894424,112.835 L754.316424,117.333 C751.087091,122.407667 746.589091,126.300167 740.822424,129.0105 C735.055757,131.720833 728.770091,133.076 721.965424,133.076 Z M724.387424,112.316 C729.577424,112.316 734.133091,111.105 738.054424,108.683 C741.975757,106.261 745.060924,102.916333 747.309924,98.649 C749.558924,94.3816667 750.683424,89.48 750.683424,83.944 C750.683424,78.5233333 749.558924,73.6505 747.309924,69.3255 C745.060924,65.0005 741.975757,61.627 738.054424,59.205 C734.133091,56.783 729.577424,55.572 724.387424,55.572 C719.312757,55.572 714.757091,56.8118333 710.720424,59.2915 C706.683757,61.7711667 703.540924,65.1158333 701.291924,69.3255 C699.042924,73.5351667 697.918424,78.408 697.918424,83.944 C697.918424,89.48 699.042924,94.3816667 701.291924,98.649 C703.540924,102.916333 706.683757,106.261 710.720424,108.683 C714.757091,111.105 719.312757,112.316 724.387424,112.316 Z M832.805977,169.06 C825.770644,169.06 819.25431,167.906667 813.256977,165.6 C807.259644,163.293333 802.098477,160.092833 797.773477,155.9985 C793.448477,151.904167 790.305644,147.089 788.344977,141.553 L809.450977,133.595 C810.834977,137.977667 813.574144,141.524167 817.668477,144.2345 C821.76281,146.944833 826.808644,148.3 832.805977,148.3 C837.41931,148.3 841.48481,147.435 845.002477,145.705 C848.520144,143.975 851.25931,141.4665 853.219977,138.1795 C855.180644,134.8925 856.160977,130.942333 856.160977,126.329 L856.160977,104.877 L860.485977,110.067 C857.256644,115.718333 852.931644,119.985667 847.510977,122.869 C842.09031,125.752333 835.919977,127.194 828.999977,127.194 C820.234644,127.194 812.391977,125.175667 805.471977,121.139 C798.551977,117.102333 793.13131,111.566333 789.209977,104.531 C785.288644,97.4956667 783.327977,89.5953333 783.327977,80.83 C783.327977,71.9493333 785.288644,64.049 789.209977,57.129 C793.13131,50.209 798.49431,44.7595 805.298977,40.7805 C812.103644,36.8015 819.830977,34.812 828.480977,34.812 C835.51631,34.812 841.715477,36.2825 847.078477,39.2235 C852.441477,42.1645 856.910644,46.403 860.485977,51.939 L857.371977,57.648 L857.371977,36.888 L878.823977,36.888 L878.823977,126.329 C878.823977,134.517667 876.834477,141.841333 872.855477,148.3 C868.876477,154.758667 863.45581,159.833333 856.593477,163.524 C849.731144,167.214667 841.801977,169.06 832.805977,169.06 Z M831.767977,106.261 C836.611977,106.261 840.850477,105.194167 844.483477,103.0605 C848.116477,100.926833 850.970977,97.957 853.046977,94.151 C855.122977,90.345 856.160977,85.9623333 856.160977,81.003 C856.160977,76.159 855.094144,71.8051667 852.960477,67.9415 C850.82681,64.0778333 847.943477,61.0503333 844.310477,58.859 C840.677477,56.6676667 836.496644,55.572 831.767977,55.572 C827.03931,55.572 822.771977,56.6676667 818.965977,58.859 C815.159977,61.0503333 812.190144,64.0778333 810.056477,67.9415 C807.92281,71.8051667 806.855977,76.159 806.855977,81.003 C806.855977,85.847 807.92281,90.172 810.056477,93.978 C812.190144,97.784 815.131144,100.782667 818.879477,102.974 C822.62781,105.165333 826.923977,106.261 831.767977,106.261 Z M937.24553,133.076 C927.55753,133.076 919.08053,130.884667 911.81453,126.502 C904.54853,122.119333 898.897197,116.179667 894.86053,108.683 C890.823863,101.186333 888.80553,92.8823333 888.80553,83.771 C888.80553,74.3136667 890.852697,65.9231667 894.94703,58.5995 C899.041363,51.2758333 904.63503,45.4803333 911.72803,41.213 C918.82103,36.9456667 926.750197,34.812 935.51553,34.812 C942.896863,34.812 949.384363,36.023 954.97803,38.445 C960.571697,40.867 965.329197,44.2116667 969.25053,48.479 C973.171863,52.7463333 976.17053,57.6191667 978.24653,63.0975 C980.32253,68.5758333 981.36053,74.4866667 981.36053,80.83 C981.36053,82.4446667 981.27403,84.117 981.10103,85.847 C980.92803,87.577 980.610863,89.0763333 980.14953,90.345 L907.48953,90.345 L907.48953,73.045 L967.34753,73.045 L956.62153,81.176 C957.65953,75.8706667 957.40003,71.142 955.84303,66.99 C954.28603,62.838 951.748697,59.551 948.23103,57.129 C944.713363,54.707 940.474863,53.496 935.51553,53.496 C930.786863,53.496 926.577197,54.6781667 922.88653,57.0425 C919.195863,59.4068333 916.39903,62.8668333 914.49603,67.4225 C912.59303,71.9781667 911.872197,77.4853333 912.33353,83.944 C911.872197,89.7106667 912.650697,94.8141667 914.66903,99.2545 C916.687363,103.694833 919.68603,107.126 923.66503,109.548 C927.64403,111.97 932.22853,113.181 937.41853,113.181 C942.60853,113.181 947.02003,112.085333 950.65303,109.894 C954.28603,107.702667 957.14053,104.761667 959.21653,101.071 L977.55453,110.067 C975.709197,114.565 972.825863,118.544 968.90453,122.004 C964.983197,125.464 960.34103,128.174333 954.97803,130.135 C949.61503,132.095667 943.704197,133.076 937.24553,133.076 Z" id="Combined-Shape" fill="url(#linearGradient-1)" fill-rule="nonzero"></path>
    </g>
</svg>