<?xml version="1.0" encoding="UTF-8"?>
<svg width="982px" height="170px" viewBox="0 0 982 170" version="1.1" xmlns="http://www.w3.org/2000/svg" xmlns:xlink="http://www.w3.org/1999/xlink">
    <title>footer-logo</title>
    <defs>
        <linearGradient x1="-48.4530224%" y1="50%" x2="982.7633%" y2="50.405692%" id="linearGradient-1">
            <stop stop-color="#FFFFFF" offset="0%"></stop>
            <stop stop-color="#3A9FFE" offset="100%"></stop>
        </linearGradient>
    </defs>
    <g id="Page-1" stroke="none" stroke-width="1" fill="none" fill-rule="evenodd" opacity="0.5">
        <g id="footer-logo" transform="translate(0.456, 0.039)" fill="url(#linearGradient-1)" fill-rule="nonzero">
            <path d="M0,130.961 L0,2.076 L23.528,2.076 L23.528,58.301 L78.369,58.301 L78.369,2.076 L102.07,2.076 L102.07,130.961 L78.369,130.961 L78.369,79.061 L23.528,79.061 L23.528,130.961 L0,130.961 Z M162.221553,133.037 C152.533553,133.037 144.056553,130.845667 136.790553,126.463 C129.524553,122.080333 123.87322,116.140667 119.836553,108.644 C115.799886,101.147333 113.781553,92.8433333 113.781553,83.732 C113.781553,74.2746667 115.82872,65.8841667 119.923053,58.5605 C124.017386,51.2368333 129.611053,45.4413333 136.704053,41.174 C143.797053,36.9066667 151.72622,34.773 160.491553,34.773 C167.872886,34.773 174.360386,35.984 179.954053,38.406 C185.54772,40.828 190.30522,44.1726667 194.226553,48.44 C198.147886,52.7073333 201.146553,57.5801667 203.222553,63.0585 C205.298553,68.5368333 206.336553,74.4476667 206.336553,80.791 C206.336553,82.4056667 206.250053,84.078 206.077053,85.808 C205.904053,87.538 205.586886,89.0373333 205.125553,90.306 L132.465553,90.306 L132.465553,73.006 L192.323553,73.006 L181.597553,81.137 C182.635553,75.8316667 182.376053,71.103 180.819053,66.951 C179.262053,62.799 176.72472,59.512 173.207053,57.09 C169.689386,54.668 165.450886,53.457 160.491553,53.457 C155.762886,53.457 151.55322,54.6391667 147.862553,57.0035 C144.171886,59.3678333 141.375053,62.8278333 139.472053,67.3835 C137.569053,71.9391667 136.84822,77.4463333 137.309553,83.905 C136.84822,89.6716667 137.62672,94.7751667 139.645053,99.2155 C141.663386,103.655833 144.662053,107.087 148.641053,109.509 C152.620053,111.931 157.204553,113.142 162.394553,113.142 C167.584553,113.142 171.996053,112.046333 175.629053,109.855 C179.262053,107.663667 182.116553,104.722667 184.192553,101.032 L202.530553,110.028 C200.68522,114.526 197.801886,118.505 193.880553,121.965 C189.95922,125.425 185.317053,128.135333 179.954053,130.096 C174.591053,132.056667 168.68022,133.037 162.221553,133.037 Z M244.344106,133.037 C237.770106,133.037 232.061106,131.941333 227.217106,129.75 C222.373106,127.558667 218.624773,124.415833 215.972106,120.3215 C213.319439,116.227167 211.993106,111.469667 211.993106,106.049 C211.993106,100.859 213.146439,96.2168333 215.453106,92.1225 C217.759773,88.0281667 221.335106,84.597 226.179106,81.829 C231.023106,79.061 237.135773,77.1003333 244.517106,75.947 L275.311106,70.93 L275.311106,88.23 L248.842106,92.728 C244.344106,93.5353333 240.999439,94.977 238.808106,97.053 C236.616773,99.129 235.521106,101.839333 235.521106,105.184 C235.521106,108.413333 236.760939,110.9795 239.240606,112.8825 C241.720273,114.7855 244.805439,115.737 248.496106,115.737 C253.224773,115.737 257.405606,114.727833 261.038606,112.7095 C264.671606,110.691167 267.497273,107.894333 269.515606,104.319 C271.533939,100.743667 272.543106,96.8223333 272.543106,92.555 L272.543106,68.335 C272.543106,64.2983333 270.957273,60.9248333 267.785606,58.2145 C264.613939,55.5041667 260.433106,54.149 255.243106,54.149 C250.399106,54.149 246.102939,55.4465 242.354606,58.0415 C238.606273,60.6365 235.867106,64.0676667 234.137106,68.335 L215.626106,59.339 C217.471439,54.3796667 220.383606,50.0835 224.362606,46.4505 C228.341606,42.8175 233.041439,39.963 238.462106,37.887 C243.882773,35.811 249.764773,34.773 256.108106,34.773 C263.835439,34.773 270.640106,36.1858333 276.522106,39.0115 C282.404106,41.8371667 286.988606,45.7585 290.275606,50.7755 C293.562606,55.7925 295.206106,61.6456667 295.206106,68.335 L295.206106,130.961 L273.754106,130.961 L273.754106,114.872 L278.598106,114.526 C276.176106,118.562667 273.292773,121.936167 269.948106,124.6465 C266.603439,127.356833 262.797439,129.432833 258.530106,130.8745 C254.262773,132.316167 249.534106,133.037 244.344106,133.037 Z M308.820659,130.961 L308.820659,0 L331.483659,0 L331.483659,130.961 L308.820659,130.961 Z M345.098212,130.961 L345.098212,36.849 L367.761212,36.849 L367.761212,130.961 L345.098212,130.961 Z M345.098212,26.296 L345.098212,2.076 L367.761212,2.076 L367.761212,26.296 L345.098212,26.296 Z M381.375765,130.961 L381.375765,36.849 L402.654765,36.849 L402.654765,55.36 L400.924765,52.073 C403.116098,46.4216667 406.720265,42.1255 411.737265,39.1845 C416.754265,36.2435 422.607432,34.773 429.296765,34.773 C436.216765,34.773 442.358265,36.2723333 447.721265,39.271 C453.084265,42.2696667 457.265098,46.4505 460.263765,51.8135 C463.262432,57.1765 464.761765,63.3756667 464.761765,70.411 L464.761765,130.961 L442.098765,130.961 L442.098765,75.774 C442.098765,71.622 441.291432,68.0466667 439.676765,65.048 C438.062098,62.0493333 435.841932,59.7138333 433.016265,58.0415 C430.190598,56.3691667 426.874765,55.533 423.068765,55.533 C419.378098,55.533 416.091098,56.3691667 413.207765,58.0415 C410.324432,59.7138333 408.075432,62.0493333 406.460765,65.048 C404.846098,68.0466667 404.038765,71.622 404.038765,75.774 L404.038765,130.961 L381.375765,130.961 Z M522.318318,169.021 C515.282985,169.021 508.766651,167.867667 502.769318,165.561 C496.771985,163.254333 491.610818,160.053833 487.285818,155.9595 C482.960818,151.865167 479.817985,147.05 477.857318,141.514 L498.963318,133.556 C500.347318,137.938667 503.086485,141.485167 507.180818,144.1955 C511.275151,146.905833 516.320985,148.261 522.318318,148.261 C526.931651,148.261 530.997151,147.396 534.514818,145.666 C538.032485,143.936 540.771651,141.4275 542.732318,138.1405 C544.692985,134.8535 545.673318,130.903333 545.673318,126.29 L545.673318,104.838 L549.998318,110.028 C546.768985,115.679333 542.443985,119.946667 537.023318,122.83 C531.602651,125.713333 525.432318,127.155 518.512318,127.155 C509.746985,127.155 501.904318,125.136667 494.984318,121.1 C488.064318,117.063333 482.643651,111.527333 478.722318,104.492 C474.800985,97.4566667 472.840318,89.5563333 472.840318,80.791 C472.840318,71.9103333 474.800985,64.01 478.722318,57.09 C482.643651,50.17 488.006651,44.7205 494.811318,40.7415 C501.615985,36.7625 509.343318,34.773 517.993318,34.773 C525.028651,34.773 531.227818,36.2435 536.590818,39.1845 C541.953818,42.1255 546.422985,46.364 549.998318,51.9 L546.884318,57.609 L546.884318,36.849 L568.336318,36.849 L568.336318,126.29 C568.336318,134.478667 566.346818,141.802333 562.367818,148.261 C558.388818,154.719667 552.968151,159.794333 546.105818,163.485 C539.243485,167.175667 531.314318,169.021 522.318318,169.021 Z M521.280318,106.222 C526.124318,106.222 530.362818,105.155167 533.995818,103.0215 C537.628818,100.887833 540.483318,97.918 542.559318,94.112 C544.635318,90.306 545.673318,85.9233333 545.673318,80.964 C545.673318,76.12 544.606485,71.7661667 542.472818,67.9025 C540.339151,64.0388333 537.455818,61.0113333 533.822818,58.82 C530.189818,56.6286667 526.008985,55.533 521.280318,55.533 C516.551651,55.533 512.284318,56.6286667 508.478318,58.82 C504.672318,61.0113333 501.702485,64.0388333 499.568818,67.9025 C497.435151,71.7661667 496.368318,76.12 496.368318,80.964 C496.368318,85.808 497.435151,90.133 499.568818,93.939 C501.702485,97.745 504.643485,100.743667 508.391818,102.935 C512.140151,105.126333 516.436318,106.222 521.280318,106.222 Z M584.026871,130.961 L584.026871,2.076 L669.661871,2.076 L669.661871,22.836 L607.554871,22.836 L607.554871,55.879 L666.201871,55.879 L666.201871,76.639 L607.554871,76.639 L607.554871,110.201 L669.661871,110.201 L669.661871,130.961 L584.026871,130.961 Z M721.509424,133.037 C712.398091,133.037 704.267091,130.8745 697.116424,126.5495 C689.965757,122.2245 684.314424,116.313667 680.162424,108.817 C676.010424,101.320333 673.934424,93.0163333 673.934424,83.905 C673.934424,74.6783333 676.010424,66.3743333 680.162424,58.993 C684.314424,51.6116667 689.994591,45.7296667 697.202924,41.347 C704.411257,36.9643333 712.455757,34.773 721.336424,34.773 C728.487091,34.773 734.859257,36.1858333 740.452924,39.0115 C746.046591,41.8371667 750.458091,45.7873333 753.687424,50.862 L750.227424,55.533 L750.227424,0 L772.890424,0 L772.890424,130.961 L751.438424,130.961 L751.438424,112.796 L753.860424,117.294 C750.631091,122.368667 746.133091,126.261167 740.366424,128.9715 C734.599757,131.681833 728.314091,133.037 721.509424,133.037 Z M723.931424,112.277 C729.121424,112.277 733.677091,111.066 737.598424,108.644 C741.519757,106.222 744.604924,102.877333 746.853924,98.61 C749.102924,94.3426667 750.227424,89.441 750.227424,83.905 C750.227424,78.4843333 749.102924,73.6115 746.853924,69.2865 C744.604924,64.9615 741.519757,61.588 737.598424,59.166 C733.677091,56.744 729.121424,55.533 723.931424,55.533 C718.856757,55.533 714.301091,56.7728333 710.264424,59.2525 C706.227757,61.7321667 703.084924,65.0768333 700.835924,69.2865 C698.586924,73.4961667 697.462424,78.369 697.462424,83.905 C697.462424,89.441 698.586924,94.3426667 700.835924,98.61 C703.084924,102.877333 706.227757,106.222 710.264424,108.644 C714.301091,111.066 718.856757,112.277 723.931424,112.277 Z M832.349977,169.021 C825.314644,169.021 818.79831,167.867667 812.800977,165.561 C806.803644,163.254333 801.642477,160.053833 797.317477,155.9595 C792.992477,151.865167 789.849644,147.05 787.888977,141.514 L808.994977,133.556 C810.378977,137.938667 813.118144,141.485167 817.212477,144.1955 C821.30681,146.905833 826.352644,148.261 832.349977,148.261 C836.96331,148.261 841.02881,147.396 844.546477,145.666 C848.064144,143.936 850.80331,141.4275 852.763977,138.1405 C854.724644,134.8535 855.704977,130.903333 855.704977,126.29 L855.704977,104.838 L860.029977,110.028 C856.800644,115.679333 852.475644,119.946667 847.054977,122.83 C841.63431,125.713333 835.463977,127.155 828.543977,127.155 C819.778644,127.155 811.935977,125.136667 805.015977,121.1 C798.095977,117.063333 792.67531,111.527333 788.753977,104.492 C784.832644,97.4566667 782.871977,89.5563333 782.871977,80.791 C782.871977,71.9103333 784.832644,64.01 788.753977,57.09 C792.67531,50.17 798.03831,44.7205 804.842977,40.7415 C811.647644,36.7625 819.374977,34.773 828.024977,34.773 C835.06031,34.773 841.259477,36.2435 846.622477,39.1845 C851.985477,42.1255 856.454644,46.364 860.029977,51.9 L856.915977,57.609 L856.915977,36.849 L878.367977,36.849 L878.367977,126.29 C878.367977,134.478667 876.378477,141.802333 872.399477,148.261 C868.420477,154.719667 862.99981,159.794333 856.137477,163.485 C849.275144,167.175667 841.345977,169.021 832.349977,169.021 Z M831.311977,106.222 C836.155977,106.222 840.394477,105.155167 844.027477,103.0215 C847.660477,100.887833 850.514977,97.918 852.590977,94.112 C854.666977,90.306 855.704977,85.9233333 855.704977,80.964 C855.704977,76.12 854.638144,71.7661667 852.504477,67.9025 C850.37081,64.0388333 847.487477,61.0113333 843.854477,58.82 C840.221477,56.6286667 836.040644,55.533 831.311977,55.533 C826.58331,55.533 822.315977,56.6286667 818.509977,58.82 C814.703977,61.0113333 811.734144,64.0388333 809.600477,67.9025 C807.46681,71.7661667 806.399977,76.12 806.399977,80.964 C806.399977,85.808 807.46681,90.133 809.600477,93.939 C811.734144,97.745 814.675144,100.743667 818.423477,102.935 C822.17181,105.126333 826.467977,106.222 831.311977,106.222 Z M936.78953,133.037 C927.10153,133.037 918.62453,130.845667 911.35853,126.463 C904.09253,122.080333 898.441197,116.140667 894.40453,108.644 C890.367863,101.147333 888.34953,92.8433333 888.34953,83.732 C888.34953,74.2746667 890.396697,65.8841667 894.49103,58.5605 C898.585363,51.2368333 904.17903,45.4413333 911.27203,41.174 C918.36503,36.9066667 926.294197,34.773 935.05953,34.773 C942.440863,34.773 948.928363,35.984 954.52203,38.406 C960.115697,40.828 964.873197,44.1726667 968.79453,48.44 C972.715863,52.7073333 975.71453,57.5801667 977.79053,63.0585 C979.86653,68.5368333 980.90453,74.4476667 980.90453,80.791 C980.90453,82.4056667 980.81803,84.078 980.64503,85.808 C980.47203,87.538 980.154863,89.0373333 979.69353,90.306 L907.03353,90.306 L907.03353,73.006 L966.89153,73.006 L956.16553,81.137 C957.20353,75.8316667 956.94403,71.103 955.38703,66.951 C953.83003,62.799 951.292697,59.512 947.77503,57.09 C944.257363,54.668 940.018863,53.457 935.05953,53.457 C930.330863,53.457 926.121197,54.6391667 922.43053,57.0035 C918.739863,59.3678333 915.94303,62.8278333 914.04003,67.3835 C912.13703,71.9391667 911.416197,77.4463333 911.87753,83.905 C911.416197,89.6716667 912.194697,94.7751667 914.21303,99.2155 C916.231363,103.655833 919.23003,107.087 923.20903,109.509 C927.18803,111.931 931.77253,113.142 936.96253,113.142 C942.15253,113.142 946.56403,112.046333 950.19703,109.855 C953.83003,107.663667 956.68453,104.722667 958.76053,101.032 L977.09853,110.028 C975.253197,114.526 972.369863,118.505 968.44853,121.965 C964.527197,125.425 959.88503,128.135333 954.52203,130.096 C949.15903,132.056667 943.248197,133.037 936.78953,133.037 Z" id="Combined-Shape"></path>
        </g>
    </g>
</svg>