<svg height="80" viewBox="0 0 315 80" width="315" xmlns="http://www.w3.org/2000/svg"><g fill="none" transform="translate(.9571)"><path d="m34.1721227 79.710826c-6.9835532-1.0554853-13.6923911-4.0195193-19.2734502-8.4727996-1.5759985-1.2723658-4.7135369-4.4099042-5.98590274-5.9859028-7.33056208-9.181276-10.36688957-21.080788-8.25591903-32.4597867 1.57599856-8.4872583 5.42201338-15.6587746 11.66817277-21.7025122 5.6388939-5.46538949 12.4634014-9.02223027 20.1988072-10.52593531 1.0265678-.20242183 2.4435207-.41930237 3.1230797-.46267847l1.2289897-.10121092v34.3683354 34.3683355l-.534972-.1012109c-1.3302006-.2168806-3.2387493-.6506416-4.3086933-.9542744l-1.1566962-.3470088-.0433761-12.2465209-.0289174-12.2465209h-4.2653172-4.2653172l-.0289174 9.8752937-.0433761 9.860835-2.1109705-2.0965118c-1.1711549-1.1566962-2.5158142-2.6459426-3.0074101-3.2965842l-.8819809-1.214531v-6.5642508-6.5642509h-4.9882523-4.98825227v.4771372c0 .2457979.13012832 1.2434484.28917405 2.1977227 2.42906199 14.6755829 13.99602382 26.0545816 28.67160672 28.2089283l1.6916682.2602566v3.0074101 3.0074101l-.4626785-.0144587c-.2602566 0-1.2723658-.1301283-2.2410989-.2747153zm-17.972167-53.3815291v-10.5837701l-.6651003.6361829c-.9976504.9687331-2.8772817 3.354419-4.0050605 5.0605459-2.66040124 4.0484366-4.78583049 9.9475872-5.24850896 14.5020784l-.10121092.9687331h5.01716968 5.002711zm14.6032894-4.3086932v-14.87800475l-1.6627508.5783481c-1.9953009.679559-3.7592626 1.46032893-5.5087656 2.42906195l-1.2868245.7084765-.0433761 13.0272908-.0289174 13.0272908h4.2653172 4.2653172z" fill="#184b8f" transform="matrix(1 0 0 -1 0 80)"/><path d="m44.3944253 76.9636725c0-2.964034 0-2.9784927.3325501-3.0363275.1735045-.0289174 1.069944-.2024218 1.9808423-.3759262 7.8366166-1.4458703 15.0804265-5.8268571 20.1265136-12.14531 3.7303452-4.6701609 6.2461594-10.4536418 7.1136815-16.3527923.3614676-2.429062.6940178-2.1543467-2.6459425-2.1543467h-2.862823l-.101211.8386048c-.433761 3.6725103-2.1398879 8.3715886-4.2074823 11.5525031-2.5013555 3.8315561-5.7979397 7.0124706-9.6150371 9.2680282-2.6893186 1.5904573-6.7088379 3.0797036-8.9933128 3.3399602l-.9831918.101211v-2.9929514-2.9784927l.6217242-.1012109c1.7784204-.2891741 5.147298-1.7061269 7.1715164-3.0218688 3.2387493-2.1254292 6.1738659-5.3497199 7.8510753-8.6752214.9398157-1.8796313 1.7784204-4.4966564 2.1977228-6.8534249l.0867522-.4771372h-9.1089825-9.1089824v-2.964034-2.9640339h9.0366889c8.8342671 0 9.036689 0 9.036689-.2747154 0-.534972-.4337611-2.3712272-.8819809-3.6869691-2.4001446-7.1715163-8.545093-12.8971625-15.7744442-14.7045002l-1.2723658-.3036328v-3.0218688-3.0074101l.5494307.0722935c.289174.0433761 1.214531.245798 2.0531357.4482198 10.8874029 2.6314838 19.3891198 11.8127598 21.1964576 22.9315019l.245798 1.5470812h2.8917404 2.8772818l-.1012109-.8964396c-.144587-1.3157419-.7229351-4.178565-1.1566962-5.68227-1.214531-4.2074824-3.643593-8.790891-6.4485813-12.14531-1.3012832-1.5470811-3.5712994-3.8026387-4.9737936-4.9304175-4.077354-3.253208-9.4993674-5.76902218-14.6466654-6.76667264-1.0410266-.20242184-2.038677-.37592626-2.1977228-.37592626-.2747153 0-.289174-.10121092-.289174-3.03632749v-3.03632749l.4048436.07229351c.2168806.04337611.8819809.13012832 1.4747877.21688053 2.8339056.40484367 6.5787095 1.46032894 9.5282848 2.68931864 12.0585578 5.06054581 20.9795771 15.9190313 23.6688957 28.8161937.6361829 3.0652449.8241461 5.3786373.7373939 9.1234412-.101211 4.6123261-.6072655 7.57636-1.9808423 11.7115489-4.1785649 12.5356949-14.2562805 22.2230255-26.907645 25.8666185-1.6916682.4915959-4.6557022 1.0988614-6.0148202 1.2579071l-.9108982.1012109z" fill="#338dcf" transform="matrix(1 0 0 -1 0 80.0578)"/><g fill="#5a5a5a" transform="translate(94.1179 14.3408)"><path d="m115.611784 22.3696217c-2.732695-.390385-5.783481-1.9808422-7.373938-3.8460148-1.763962-2.0675945-2.530273-4.2508585-2.530273-7.2004338 0-2.19772276.260256-3.42671246 1.069944-5.06054582 1.691668-3.42671245 4.944876-5.5955178 9.195734-6.14494856 3.094163-.40484367 6.766673.26025671 8.877644 1.60491603l.6651.41930237v4.91595879 4.91595879h-4.12073-4.12073v-1.6627508-1.66275073h2.168805 2.168805v-2.09651184-2.09651184l-.534972-.27471535c-1.214531-.60726549-3.701427-.78076992-5.320802-.37592626-3.614676.92535695-5.855775 3.73034521-5.855775 7.34502082 0 2.2121814.650642 3.8315561 2.154347 5.3208024 1.691668 1.6772095 3.686969 2.3856859 6.448581 2.2555576 1.720586-.0722935 3.00741-.4048437 4.424363-1.1133201l.795229-.4048437.33255 1.604916c.187963.8819808.361468 1.6916682.404844 1.7784204.086752.2457979-1.416953.9976505-2.732695 1.359118-1.995301.534972-4.250859.6940177-6.116031.4193024z" transform="matrix(1 0 0 -1 0 22.502)"/><path d="m182.266402 22.3633466c-2.732695-.390385-5.783481-1.9808422-7.373939-3.8460148-1.763961-2.0675945-2.530273-4.2508585-2.530273-7.2004338 0-2.19772274.260257-3.42671244 1.069944-5.0605458 2.168806-4.38098681 6.983554-6.73775527 12.622448-6.17386588 2.024218.20242182 3.094162.46267846 4.45328 1.09886136 1.286824.6072655 1.633833.91089825 1.662751 1.46032894.014458.24579794.028917 2.42906199.014458 4.88704138l-.014458 4.4388216h-4.12073-4.120731v-1.6627507-1.66275082h2.168806 2.168805v-2.09651183-2.09651184l-.534972-.27471535c-1.214531-.60726549-3.701428-.78076992-5.320802-.37592626-3.614676.92535695-5.855775 3.7303452-5.855775 7.3450208 0 2.2121814.650642 3.8315561 2.154347 5.3208024 1.691668 1.6772095 3.686969 2.3856859 6.448581 2.2555576 1.720586-.0722935 3.00741-.4048437 4.424363-1.1133201l.795229-.4048436.33255 1.6049159c.187963.8819809.361467 1.6916682.404843 1.7784204.086753.2457979-1.416952.9976505-2.732694 1.359118-1.995301.534972-4.250859.6940177-6.116031.4193024z" transform="matrix(1 0 0 -1 0 22.4958)"/><path d="m41.2651365 11.3356654c-2.4001446-5.91360923-4.4099043-10.85848543-4.4677391-11.00307245-.0867522-.23133925.0433761-.24579796 1.9663836-.21688055l2.0531357.04337612 1.0265678 2.57364901 1.0265679 2.55919032h3.8460148 3.8460149l1.0265678-2.55919032 1.0265679-2.57364901 2.1254292-.04337612c2.0675945-.02891741 2.1109706-.02891741 2.0242184.26025665-.0433762.15904573-2.0386771 5.08946322-4.4099043 10.94523765l-4.3086933 10.6705223-1.2145309.0433761-1.214531.0433762zm5.8123983 3.354419c.2024218-.6217242 1.4314115-3.9038497 2.1688053-5.81239838.101211-.24579794-.0867522-.26025664-2.5158142-.26025664-1.4458702 0-2.6170251.04337611-2.6170251.10121092 0 .04337611.5205133 1.4458702 1.1566962 3.0941623s1.2000723 3.2098319 1.2434484 3.4556299c.1156696.5638893.2457979.433761.5638894-.5783481z" transform="matrix(1 0 0 -1 0 22.182)"/><g transform="matrix(1 0 0 -1 0 22.5022)"><path d="m.73739382 11.2511398v-10.8440267h2.09651184 2.09651184l.0289174 4.52557382.04337611 4.51111513h4.91595879 4.9159588l.0433761-4.51111513.0289174-4.52557382h2.0965118 2.0965119v10.8440267 10.8440268h-2.0965119-2.0965118v-4.4821977-4.4821978h-4.9882523-4.9882523v4.4821978 4.4821977h-2.09651184-2.09651184z"/><path d="m22.8592084 11.2511398v-10.8440267h6.5787095 6.5787096v1.73504427 1.73504428h-4.4821977-4.4821977v2.81944696 2.81944695h3.253208 3.253208v1.80733784 1.8073377h-3.253208-3.253208v2.7471535 2.7471534h3.9038496 3.9038496v1.7350443 1.7350443h-6.0003614-6.0003615z"/><path d="m59.1505512 11.2511398v-10.8440267h6.5787096 6.5787096v1.73504427 1.73504428l-4.4388217.02891741-4.4532803.04337611-.0433761 9.08006503-.0289174 9.0656064h-2.0965118-2.0965119z"/><path d="m74.4767757 11.2511398v-10.8440267h2.0965118 2.0965119v10.8440267 10.8440268h-2.0965119-2.0965118z"/></g><path d="m82.8628231 11.6126074v-10.77173323h2.1109705 2.0965118l-.0433761 7.4462317c-.0289174 4.09181273 0 7.43177303.0578348 7.41731433.0433761-.0289174.8241461-.8819809 1.7061269-1.9230074.8964396-1.0265679 4.0050606-4.46773907 6.896801-7.61973618l5.291885-5.75456352h.910898.925357v10.9886138 10.9886137h-2.11097-2.0965121l.0433761-6.8678836c.0289174-3.7737213 0-6.85342487-.0433761-6.83896617-.0433761.0289174-.6651003.72293512-1.3880354 1.56153987-.7084764.8386047-3.499006 3.9038496-6.1738659 6.8389662l-4.8870414 5.3063437h-1.6482921-1.648292z" transform="matrix(1 0 0 -1 0 22.7914)"/><path d="m136.360022 11.2511398v-10.8440267h6.578709 6.57871v1.73504427 1.73504428h-4.482198-4.482198v2.81944696 2.81944695h3.253208 3.253208v1.80733784 1.8073377h-3.253208-3.253208v2.7471535 2.7471534h3.90385 3.90385v1.7350443 1.7350443h-6.000362-6.000361z" transform="matrix(1 0 0 -1 0 22.5022)"/><path d="m151.541659 11.2511398v-10.87294411l4.525574.07229351c4.005061.05783481 4.641243.10121092 5.725646.37592626 4.12073 1.05548527 7.041388 3.77372131 8.053497 7.53298392.361468 1.30128321.361468 4.48219772 0 5.78348092-1.012109 3.7592626-3.932767 6.4774987-8.053497 7.5329839-1.084403.2747154-1.720585.3180915-5.725646.3759263l-4.525574.0722935zm8.790891 7.0124707c1.373577-.3180915 2.400145-.8819809 3.441171-1.8362552 1.445871-1.359118 2.082053-2.964034 2.082053-5.2918851 0-3.32550151-1.691668-5.68226999-4.858124-6.76667267-.968733-.33255015-1.460328-.40484366-3.195373-.46267847l-2.067594-.07229351v7.41731425 7.4173143l1.836255-.1012109c1.012109-.0433761 2.255558-.1879631 2.761612-.3036327z" transform="matrix(1 0 0 -1 0 22.5022)"/><path d="m195.640701 11.2511398v-10.8440267h6.57871 6.578709v1.73504427 1.73504428h-4.482197-4.482198v2.81944696 2.81944695h3.253208 3.253208v1.80733784 1.8073377h-3.253208-3.253208v2.7471535 2.7471534h3.90385 3.903849v1.7350443 1.7350443h-6.000361-6.000362z" transform="matrix(1 0 0 -1 0 22.5022)"/><path d="m215.521417 35.0051394c-1.359118-.3470088-2.110971-1.1711548-2.313392-2.4868968-.187964-1.2434484.419302-2.5447316 1.44587-3.1230797 1.590457-.8964395 3.715886-.3903849 4.525574 1.069944.88198 1.5904573.375926 3.4700886-1.142238 4.2363998-.621724.3180914-1.879631.4771372-2.515814.3036327zm1.995301-.6506416c1.098861-.4626784 1.735044-1.7784203 1.416953-2.9351165-.33255-1.1856136-1.301284-1.9230074-2.544732-1.9230074s-2.212181.7373938-2.544732 1.9230074c-.318091 1.1422375.303633 2.4435207 1.388036 2.9351165.563889.245798 1.691668.2602567 2.284475 0z" transform="matrix(1 0 0 -1 0 64.026)"/><path d="m215.304536 31.9270842c0-1.7784204.014459-1.8796313.289174-1.8796313.245798 0 .289175.1012109.289175.7229351s.043376.7229351.289174.7229351c.159045 0 .448219-.2457979.722935-.6361829.534972-.7807699.679559-.8819808.939815-.6651003.173505.144587.144587.2747153-.231339.824146-.419302.5928068-.433761.6651003-.21688.8964396.231339.2602566.303632 1.1133201.115669 1.4024941-.202422.3180915-.737394.4915959-1.460329.4915959h-.737394zm1.56154 1.1277788c.419303-.4193024.028918-.9831918-.679559-.9831918-.260256 0-.303632.0867522-.303632.5783481 0 .534972.028917.5783481.404843.5783481.216881 0 .477137-.0722935.578348-.1735044z" transform="matrix(1 0 0 -1 0 63.8542)"/><path d="m85.9425267 39.9805814c-2.0097597-4.8725827-3.6869691-8.9788542-3.7448039-9.1234412-.0867523-.2313392 0-.2602566 1.0410265-.2168805l1.1277788.0433761.9687331 2.3856859.9831917 2.3856858h3.643593 3.6580517l.9976505-2.4146032.9976504-2.429062h1.1422375c.6361829 0 1.1422375.0144587 1.1422375.0433761 0 .0144587-1.6772095 4.1062714-3.7303452 9.0656063-3.6869691 8.9499368-3.7303452 9.036689-4.1496476 9.0800651l-.4337611.0433761zm5.4075546 1.0554852c.5928068-1.5326224 1.1711549-3.0218687 1.2868245-3.2821254l.2024219-.4915959h-2.8772818-2.8917405l.5783481 1.4169529c.4626785 1.1277787 1.4892464 3.7737213 2.2266402 5.7401048.1012109.2602566.1156696.2457979.2457979-.144587.0867522-.2313393.6361829-1.6916682 1.2289897-3.2387494z" transform="matrix(1 0 0 -1 0 79.4552)"/><path d="m129.925899 48.9534496c-4.424363-.8819808-7.345021-4.0484366-7.663112-8.3282125-.318092-4.2653172 2.096512-7.9378276 6.144948-9.3403217 2.964034-1.0410266 7.084765-.6795591 9.398157.8096873l.722935.4626785v3.6002168 3.6002169h-3.325501-3.325502v-.8675221-.8675222h2.241099 2.241099v-2.1543466c0-2.5013555.043376-2.4146033-1.547081-2.9061992-2.949576-.9108982-6.173866-.2168805-8.198085 1.7784204-2.848364 2.8049883-2.804988 7.6197361.086753 10.3090548 1.388035 1.2723658 2.906199 1.9085487 4.887041 2.038677 1.691668.1012109 3.036327-.2024218 5.306344-1.2000723.159045-.0722935.318091.3325502.54943 1.4747876.086753.4482198.072294.4626785-.968733.8964396-.578348.2313392-1.402494.5060546-1.836255.5928068-1.286824.2747153-3.600217.3180914-4.713537.1012109z" transform="matrix(1 0 0 -1 0 79.7816)"/><path d="m165.494307 49.0056745c-3.195373-.5205133-5.841316-2.3567685-7.142599-4.9882523-1.330201-2.6748599-1.330201-5.68227 0-8.3715886.795229-1.6193747 2.168805-3.0074101 3.817097-3.8604736 1.648292-.8530634 2.718236-1.11332 4.626785-1.11332s2.978493.2602566 4.626785 1.11332c4.366528 2.2700163 6.058196 7.7064884 3.817097 12.2320622-1.11332 2.2555576-3.383336 4.0628954-5.89915 4.713537-.954275.2457979-3.065245.3903849-3.846015.2747153zm2.703777-2.0965118c2.703778-.5783481 4.915959-2.7037774 5.537683-5.3497199 1.012109-4.2942346-1.735044-8.3426712-6.072655-8.9788541-2.139888-.3036328-4.250858.433761-5.870233 2.038677-1.850714 1.8507139-2.544732 4.3520694-1.937466 6.9401771.881981 3.7158865 4.641243 6.1304898 8.342671 5.3497199z" transform="matrix(1 0 0 -1 0 79.7182)"/><path d="m72.0910898 48.8017778c-2.6314838-.5205133-4.8002891-1.9374661-6.1594072-4.0484366-.7518525-1.1566962-1.11332-2.1832641-1.3157419-3.7448039-.5638894-4.56895 2.2555576-8.6896801 6.752214-9.8463763 1.9953009-.5060546 4.8292066-.4193024 6.4919574.2024218.7518525.2891741.7807699.3180915.8675221.9687331.0433761.3614675.0867522.8096873.0867522.9976504v.3325502l-.6506416-.2891741c-.9831918-.433761-2.4435207-.7084764-3.8315561-.7084764-2.2121815 0-3.932767.6506416-5.4364721 2.0675945-3.253208 3.0363274-2.8049882 8.5595517.8964396 11.0175311 1.4024941.9398157 2.6170251 1.2868245 4.467739 1.2868245 1.4024941 0 1.7350443-.0578348 2.8194469-.4482197.679559-.2313393 1.3302006-.4771372 1.4747877-.534972.1879631-.0867522.2602566.0289174.3903849.6361829.2313393 1.0410265.2168806 1.1277788-.289174 1.3735767-1.3880354.7229351-4.713537 1.0988614-6.5642509.7373938z" transform="matrix(1 0 0 -1 0 79.7746)"/><path d="m1.54708115 48.8148485c-.02891741-.1012109-.36146756-3.932767-.72293512-8.501717-.37592626-4.5689499-.70847641-8.5306343-.75185252-8.7764323l-.07229351-.4771372h1.01210916 1.01210917l.07229351.7663113c.10121091.8675221.75185252 8.7185975.89643954 10.829568l.10121092 1.4024941 3.25320802-6.5642508 3.26766673-6.5787096h.44821975.4626785l2.9351166 5.9714441c1.6193746 3.2676667 3.0652449 6.2461594 3.2387493 6.6076269l.289174.6506416.1156697-1.2289897c.0578348-.679559.2747153-3.3110428.4771371-5.8557744.2024219-2.5447316.4048437-4.9304175.4626785-5.3063438l.0867522-.6940177h1.0554853 1.069944l-.0722935.5494307c-.0433762.2891741-.3759263 4.1207302-.7229352 8.4872583-.3614675 4.3809868-.6940177 8.1691668-.7373938 8.4294235-.0722935.4482197-.1012109.4626784-.7518525.4626784h-.6940177l-3.4122538-6.896801c-1.8796313-3.8026387-3.4700885-7.0703054-3.542382-7.2438099-.101211-.3036327-.63618294.6651004-3.73034524 6.8968011l-3.60021688 7.2438098h-.69401771c-.43376107 0-.72293512-.0722935-.75185252-.1735044z" transform="matrix(1 0 0 -1 0 79.9034)"/><g transform="matrix(1 0 0 -1 0 79.7588)"><path d="m24.5942527 39.8793705v-8.9643955h5.2774263 5.2774264v1.0121092 1.0121091h-4.1207302-4.1207302v3.0363275 3.0363275h2.964034 2.964034v.9398157.9398156h-2.964034-2.964034v2.964034 2.964034h3.6146756 3.6146756v1.0121091 1.0121092h-4.7713718-4.7713717z"/><path d="m38.3300199 39.8793705v-8.9933129l3.5134646.0578348c3.9616845.0867522 4.9159588.245798 6.7955901 1.2289897 1.4024942.7229351 3.0507862 2.3712272 3.6869691 3.6869691 1.1856136 2.429062 1.1856136 5.5666004.0144587 8.0245798-.6217242 1.3157419-2.2700162 2.964034-3.7014278 3.7014278-1.8651726.9687331-2.8339056 1.1422375-6.7955901 1.214531l-3.5134646.0722935zm7.1570576 6.7232965c3.499006-.9108982 5.4220134-3.2965841 5.4220134-6.7232965 0-1.9374662-.534972-3.3977951-1.7061269-4.6701609-1.5181637-1.6338334-3.1953732-2.2555576-6.4196638-2.3712272l-2.1398879-.0867522v7.041388 7.0269294h1.9953009c1.3302006 0 2.2844749-.0722935 2.8483643-.2168806z"/><path d="m57.849268 39.8793705v-8.9643955h1.1566962 1.1566962v8.9643955 8.9643954h-1.1566962-1.1566962z"/><path d="m101.659136 39.8793705v-8.9643955h5.205133 5.205133v1.0121092 1.0121091h-4.048437-4.048437v7.9522863 7.9522863h-1.156696-1.156696z"/></g><path d="m143.155612 39.8649118v-8.9788542h1.084402 1.084403l.028918 4.0195193.043376 4.0050605 1.243448.0433761 1.243448.0433761 2.891741-4.0195192 2.89174-4.0195193 1.388036-.0433761c.78077-.0144587 1.402494 0 1.402494.0433761s-1.373577 1.9374661-3.050786 4.2219411c-1.662751 2.2700163-3.021869 4.1351889-2.992952 4.1496476.028918.0144587.289174.1301283.592807.2747153.838605.3759263 1.908549 1.460329 2.284475 2.3133924.506055 1.1566962.491596 2.9206579-.057835 4.0339779-.506054 1.0265679-1.590457 2.0242184-2.67486 2.4435207-.751852.3036328-1.127778.3325502-4.106271.390385l-3.296584.0578348zm6.116031 6.7666726c1.142237-.3180914 2.125429-1.6049159 2.125429-2.8049882s-.954274-2.4435207-2.154347-2.8049883c-.303632-.0867522-1.315741-.1590457-2.241098-.1590457h-1.67721v2.964034 2.964034h1.706127c.925357 0 1.937466-.0722935 2.241099-.1590458z" transform="matrix(1 0 0 -1 0 79.7298)"/><path d="m180.314477 43.0169089c0-3.3255016.072293-6.4341226.144587-6.9112597.173504-1.0844027.838605-2.4579794 1.547081-3.1809146 1.344659-1.3880354 3.050786-2.0097596 5.465389-2.0097596 3.397795 0 5.667812 1.359118 6.752214 4.0773541.318092.8096873.332551.9253569.375927 7.4462317l.043376 6.6076269h-1.084403-1.084403l-.043376-6.3184529c-.057834-7.3016447-.043376-7.2148924-1.344659-8.5306344-1.012109-.9976504-2.298934-1.4314115-3.961684-1.3012832-.607266.0433761-1.34466.1590458-1.633834.2602567-.910898.3036327-1.879631 1.1422375-2.356768 2.0820531l-.433761.8530634-.043376 6.4774987-.043377 6.4774986h-1.142237-1.156696z" transform="matrix(1 0 0 -1 0 79.9612)"/><path d="m199.544551 39.8649118v-8.9788542h1.084403 1.084402l.028918 4.0195193.043376 4.0050605 2.385686.0722935c2.298933.0722935 2.429062.1012109 3.33996.5205133 1.171155.5494307 1.923007 1.3012832 2.429062 2.3567685.303633.6651003.375926 1.0265678.375926 2.038677 0 1.0554853-.057835 1.3446593-.404844 2.0531357-.506054 1.0265679-1.590457 2.0242184-2.674859 2.4435207-.751853.3036328-1.113321.3325502-4.250859.390385l-3.441171.0578348zm6.520875 6.7088378c2.154346-.7663112 2.67486-3.4990059.939815-4.9448762-.766311-.6217242-1.402494-.7663112-3.470088-.7663112h-1.821797v2.964034 2.964034h1.865173c1.301283 0 2.053136-.0722935 2.486897-.2168806z" transform="matrix(1 0 0 -1 0 79.7298)"/></g></g></svg>