<?xml version="1.0" encoding="UTF-8"?>
<svg width="40px" height="40px" viewBox="0 0 40 40" version="1.1" xmlns="http://www.w3.org/2000/svg" xmlns:xlink="http://www.w3.org/1999/xlink">
    <title>logo-mark2</title>
    <defs>
        <linearGradient x1="-48.453022%" y1="50%" x2="982.7633%" y2="63.663709%" id="linearGradient-1">
            <stop stop-color="#FFFFFF" offset="0%"></stop>
            <stop stop-color="#3A9FFE" offset="100%"></stop>
        </linearGradient>
    </defs>
    <g id="Page-1" stroke="none" stroke-width="1" fill="none" fill-rule="evenodd">
        <g id="logo-mark2" transform="translate(0.0025, 0)" fill="url(#linearGradient-1)" fill-rule="nonzero">
            <path d="M39.9880235,19.5687043 C39.9364159,17.27856 39.6783781,15.8082338 38.9650879,13.7390839 C36.8049429,7.4942078 31.6110105,2.68223134 25.0715951,0.867937978 C24.2403447,0.63446801 22.6994905,0.324362858 21.9585533,0.240598824 L21.0867541,0.147923722 L21.0867541,2.00855462 C21.0867541,2.7695598 21.0867541,3.11709142 21.1107149,3.32204598 C21.1346755,3.53412938 21.2084005,3.7854215 21.5641241,3.84423454 C21.6231041,3.8531456 21.8498089,3.89591874 22.1318073,3.94760292 L22.5630991,4.02602032 C26.4189211,4.71217252 30.0590973,6.82944216 32.5491621,9.83425414 C34.3959757,12.062021 35.6511453,14.8404919 36.0805939,17.6563892 C36.0990251,17.779362 36.1192995,17.888077 36.1358877,17.9860987 C36.1543189,18.0948138 36.1745933,18.2142221 36.1838089,18.2962039 C36.0511039,18.3068972 35.8170267,18.305115 35.5718907,18.3033327 C35.4336563,18.3033327 35.2788335,18.2997683 35.1037365,18.2997683 L33.9775857,18.2997683 L33.9665269,18.2035288 C33.7379793,16.3393335 32.8569645,14.0081982 31.7750487,12.404206 C30.4793303,10.4918909 28.7504771,8.88611656 26.7783309,7.76332204 C25.3609661,6.95597932 23.2929775,6.21814294 22.0672979,6.0826947 L21.1623223,5.99358404 L21.1623223,9.60969524 L21.7871425,9.70771698 C22.6405103,9.841383 24.3066973,10.5204063 25.2817117,11.1317056 C26.8797029,12.1422206 28.3210283,13.6767065 29.1356907,15.2325789 C29.5706687,16.0702192 29.9650979,17.228658 30.1807437,18.2997683 L21.0148723,18.2997683 L21.0148723,21.9105328 L25.9673549,21.9105328 C28.4371455,21.9105328 29.6665113,21.9105328 30.1494105,21.9337016 C30.0849011,22.2776688 29.9319215,22.8729282 29.7549813,23.3755124 C28.5827525,26.7492426 25.5452789,29.4795936 22.0193765,30.3297094 L21.0904405,30.5435752 L21.0904405,34.1775084 L21.7926719,34.0883978 C21.9677689,34.0634468 22.4764721,33.9547318 22.8653719,33.8638388 C28.5237723,32.5450008 32.9546501,27.9255034 33.8928019,22.3649974 L33.9683701,21.9087506 L36.1672209,21.9087506 L36.1616915,21.9515238 C36.0879663,22.5913384 35.7985955,23.9636428 35.5866357,24.6693994 C34.9802469,26.6957762 33.7840573,28.8665122 32.3888101,30.4740688 C31.7363431,31.2225984 30.6046629,32.3026198 29.9190197,32.8355016 C27.8989523,34.3895918 25.1803397,35.5997148 22.6497261,36.0720014 C22.0691409,36.1807164 21.6636529,36.2448762 21.6046729,36.2502228 C21.0885973,36.2502228 21.0885973,36.4961682 21.0885973,38.0912494 L21.0885973,40 L21.7355349,39.8895028 C21.7963581,39.8770272 21.9751415,39.8538584 22.1483955,39.8306898 C22.2516105,39.816432 22.3603551,39.8021744 22.4635701,39.7879166 C23.9325425,39.5847442 25.8641399,39.0607734 27.3865629,38.4494742 C33.6458229,35.918731 38.2149351,30.5578328 39.6083393,24.1097844 C39.9382591,22.5770808 40.0341017,21.4311174 39.9898667,19.5704865 L39.9880235,19.5687043 Z M38.8839903,23.9636428 C37.5385075,30.1817858 33.1334335,35.3519872 27.0990351,37.7918374 C25.6300627,38.3817502 23.7685043,38.8878988 22.3548257,39.08216 C22.2516105,39.0964178 22.1447091,39.1106754 22.0433371,39.1249332 C21.9585533,39.1356264 21.8848283,39.1463198 21.8240051,39.1552308 L21.8240051,38.0930316 C21.8240051,37.6243094 21.8240051,37.1751916 21.8369069,36.9399394 C22.1225917,36.8989484 22.5667853,36.8169666 22.7879605,36.7759758 C25.4291619,36.2823026 28.2657345,35.0204954 30.3761153,33.396899 C31.0930917,32.8408484 32.2726931,31.7162716 32.9509639,30.9374444 C34.4088775,29.256817 35.6585177,26.9898414 36.2925535,24.8707896 C36.5137287,24.1347354 36.8141585,22.7036178 36.8915699,22.0335056 L36.9892555,21.1994296 L33.3361775,21.1994296 L33.1629235,22.2545 C32.2726931,27.5334166 28.0629905,31.9212262 22.6902749,33.1741222 C22.3474531,33.2543218 22.0156903,33.3238282 21.8258481,33.3612546 L21.8258481,31.1085368 L22.1926305,31.0247728 C25.9599825,30.117626 29.2038863,27.203707 30.4516835,23.6072002 C30.6673293,22.995901 30.9198377,22.0245946 30.9198377,21.6895384 C30.9198377,21.243985 30.4701147,21.2315096 29.9503529,21.2154696 C29.3587091,21.1994296 28.2251857,21.1994296 25.9673549,21.1994296 L21.7521231,21.1994296 L21.7521231,19.0144359 L31.0654447,19.0144359 L30.9419553,18.3621458 C30.7244663,17.1805382 30.2839589,15.859918 29.7936871,14.9135626 C28.9218879,13.2489752 27.3865629,11.6129032 25.6835133,10.5346641 C24.6200289,9.8681162 22.8543131,9.15344858 21.9051027,9.00552486 L21.8995733,6.78488682 L21.9880433,6.7937979 C23.1031353,6.91677062 25.0844971,7.62787382 26.4041761,8.37996792 C28.2804795,9.44929602 29.9245491,10.976653 31.1594443,12.7980752 C32.1694779,14.2951346 33.0228459,16.5549813 33.2366487,18.2926395 L33.3269619,19.0162181 L35.1055795,19.0162181 C35.2788335,19.0162181 35.4318131,19.0162181 35.5682045,19.0197826 C36.2575341,19.0251292 36.5727089,19.0286936 36.7865115,18.7880948 C36.9855693,18.5635359 36.9376481,18.289075 36.8657661,17.8720371 C36.8491779,17.779362 36.8307467,17.6742114 36.8141585,17.5565853 C36.3662785,14.6177152 35.0576583,11.7180538 33.1297473,9.3922652 C30.5290947,6.25556942 26.7285665,4.04384246 22.7031767,3.32917484 L22.2755713,3.25075744 C22.1041603,3.2186776 21.9530239,3.1919444 21.8424363,3.17055784 C21.8313775,2.97273214 21.8313775,2.57886294 21.8313775,2.01211906 L21.8313775,0.94457316 L21.8829851,0.9499198 C22.5188641,1.02120834 23.9933657,1.3063625 24.8743805,1.55409018 C31.1815617,3.30422384 36.1893383,7.94510782 38.2720721,13.9672073 C38.9595585,15.959722 39.2083807,17.3783639 39.2581451,19.5865265 C39.3005371,21.3883444 39.2083807,22.4933166 38.8913629,23.9636428 L38.8839903,23.9636428 Z M19.3560578,0 L19.3560578,3.62145786 L18.1893583,3.79611478 C10.9182215,4.83158082 5.22480161,10.2691142 4.02123955,17.3231153 C3.95673009,17.6991624 3.91065191,18.0395651 3.89037751,18.2195687 L8.18117761,18.2195687 L8.18117761,12.0263768 L8.69541011,11.3384423 C8.97372231,10.9802174 9.68516941,10.2227767 10.2528526,9.67920156 L11.9430002,8.05025842 L11.9817059,18.2213509 L15.5536864,18.2213509 L15.5665883,12.5752985 L15.5887058,6.30903582 L16.4347012,6.06309036 C16.9692081,5.91694886 17.9423792,5.6995188 18.6575126,5.58545714 L19.3560578,5.45713776 L19.3560578,39.9625736 L18.3368084,39.8805916 C17.9644968,39.857423 17.2198734,39.7451434 16.7185428,39.648904 C12.7355449,38.898592 9.24097575,37.1306362 6.33620731,34.3967208 C3.11626409,31.3723044 1.15517677,27.8310462 0.340514552,23.5697736 C-0.74693049,17.8773837 0.797610096,11.9746926 4.58155021,7.37301728 C5.23770349,6.5834967 6.84859665,5.02049546 7.65957263,4.38424524 C10.5514392,2.14578506 13.9759695,0.684369988 17.5663813,0.156834788 L17.5682244,0.156834788 C17.6443087,0.145713776 17.8698721,0.11324042 18.1081412,0.082475252 L18.2277013,0.067341778 C18.4465143,0.04024951 18.6568491,0.017822136 18.7533552,0.017822136 L19.3560578,0 Z M18.6188069,0.743183034 C18.4400236,0.759222954 18.1193194,0.798431652 17.6769689,0.862591338 L17.5010121,0.889194784 C14.1019185,1.41852522 10.8635837,2.81686396 8.12219755,4.94029584 C7.34071161,5.55159508 5.78879853,7.0593477 5.15660589,7.81857066 C1.50905719,12.2562823 0.0161241661,17.9504545 1.06117728,23.439672 C1.84634947,27.5512386 3.73924109,30.967742 6.84491041,33.8852254 C9.64462061,36.5211192 13.0138571,38.2249154 16.8549342,38.9502762 C17.3931273,39.0536446 18.0787706,39.1516664 18.3847298,39.1712708 L18.6132775,39.1890928 L18.6132775,6.31438246 C17.9423792,6.43022634 17.0945407,6.62092318 16.6374452,6.74746034 L16.3204273,6.84013544 L16.3001529,12.5788629 L16.2854079,18.9360185 L11.244455,18.9360185 L11.2112787,9.76118338 L10.7707713,10.1853502 C10.1754412,10.7556585 9.51191545,11.4738906 9.28705393,11.7626092 L8.91658537,12.2598467 L8.91658537,18.9360185 L3.14391101,18.9360185 L3.14391101,18.3461059 C3.14391101,18.18036 3.22132235,17.6367849 3.29504743,17.2108359 C4.55021705,9.84672964 10.4924591,4.17216182 18.0769275,3.09035822 L18.6169638,3.01015862 L18.6188069,3.01194084 L18.6188069,0.743183034 Z M16.2890941,21.1281412 L16.2890941,36.57815 L14.9601994,36.1290322 C13.9372638,35.7904116 13.0341315,35.4036714 12.1217836,34.9135626 L11.2831607,34.4644448 L11.244455,21.1281412 L16.2890941,21.1281412 Z M15.5518433,21.8392444 L11.983549,21.8392444 L11.9964509,27.8666904 L12.0167253,34.0420602 L12.4775071,34.2880058 C13.3511494,34.75851 14.215576,35.1274282 15.199806,35.4535734 L15.5518433,35.5729816 L15.5518433,21.8392444 Z M8.91658537,21.1281412 L8.91658537,32.696489 L7.95631611,31.8053822 C7.44576987,31.3224024 6.47628497,30.1354482 5.88279801,29.2639458 C4.50598201,27.2268758 3.41669383,24.30761 3.17524417,21.9960792 L3.08124469,21.1281412 L8.91658537,21.1281412 Z M8.18117761,21.8410266 L3.89959315,21.8410266 L3.90880879,21.9230084 C4.13551343,24.0973088 5.20268407,26.9541972 6.50024563,28.8718588 C6.96102741,29.5473178 7.67800389,30.4491178 8.18117761,30.9944752 L8.18117761,21.8410266 Z" id="Shape"></path>
        </g>
    </g>
</svg>