<svg height="219" viewBox="0 0 212 219" width="212" xmlns="http://www.w3.org/2000/svg"><g fill="#ffffff" fill-rule="evenodd"><path d="m114.470318 8.20954693c0 8.15048547 0 8.15048547.881846 8.32766987.470317.0590615 2.939486.5315534 5.408654 1.0040453 21.39946 3.9571198 41.152808 15.946602 54.909604 33.3106796 10.170622 12.8163431 17.04902 28.6448221 19.400609 44.82767.999426 6.6739483 1.881271 5.9061493-7.231136 5.9061493h-7.819033l-.293949-2.3033985c-1.175795-10.0404531-5.820183-22.9158576-11.463996-31.656958-6.819609-10.512945-15.814437-19.1949838-26.220218-25.3964401-7.348716-4.3705502-18.283605-8.4457929-24.515315-9.1545307l-2.704328-.2953075v8.2095469 8.1504855l1.704902.2953074c4.879547.7677994 14.050745 4.6658576 19.576979 8.2686084 8.818459 5.8470874 16.872651 14.6472492 21.39946 23.80178 2.586748 5.1383495 4.879547 12.3438511 5.996552 18.7815536l.235159 1.299353h-24.868054-24.868054v8.150485 8.150485h24.632895c24.103787 0 24.632895 0 24.632895.7678 0 1.476537-1.175795 6.496763-2.410379 10.099514-6.525659 19.667476-23.339521 35.377832-43.034079 40.279936l-3.468594.82686v8.268609 8.268608l1.469743-.177184c.764267-.118123 3.292225-.649677 5.585024-1.240291 29.688812-7.205502 52.910753-32.365696 57.84909-62.841424l.646687-4.252428h7.877823 7.877824l-.293949 2.480583c-.411528 3.602751-1.998851 11.457929-3.174645 15.592233-3.292225 11.51699-9.935464 24.097087-17.578128 33.31068-3.527384 4.252427-9.759095 10.394822-13.580427 13.52508-11.111258 8.918285-25.926269 15.828479-39.977013 18.545308-2.821907.531553-5.585024 1.004045-5.996552 1.004045-.764266 0-.764266.295308-.764266 8.32767v8.32767l1.117004-.177184c.587898-.118123 2.410379-.354369 3.997702-.590615 7.760243-1.122169 17.930866-4.016182 25.985058-7.382686 32.922247-13.87945 57.261193-43.646441 64.551119-78.965211 1.763692-8.386731 2.234009-14.765372 1.99885-24.98301-.293948-12.6391581-1.646112-20.7896435-5.408654-32.0703879-11.170048-34.5509708-38.62485-61.1286407-73.134419-71.11003231-4.644388-1.35841424-12.69858-3.01213593-16.402333-3.42556635l-2.469168-.29530744v8.20954693z"/><path d="m93.5687243.82596983c-19.1089947 2.89089439-37.5102488 11.03259697-52.7856489 23.18615297-4.3054216 3.4808729-12.9162649 12.0945582-16.3959892 16.4014009-20.05264873 25.1330819-28.36860011 57.6998922-22.58871901 88.8507543 4.30542164 23.245151 14.86255141 42.891433 31.90730281 59.41083 15.4523352 14.985452 34.0895028 24.720097 55.2627408 28.790948 2.8309621.530981 6.6645567 1.120959 8.5518649 1.238955l3.3617673.294989v-94.042565-94.1015622l-1.4744592.2949893c-3.6566595.5899784-8.8467568 1.7699353-11.7956757 2.5959051l-3.1848325.9439656v33.5697737l-.0589784 33.5107755h-11.7366973-11.677719l-.0589784-27.0210126-.1179567-27.0210129-5.7798811 5.7227909c-3.1848325 3.1858836-6.9004703 7.2567349-8.256973 9.0266703l-2.4181135 3.3038793v17.9943427 17.9943423h-13.6240055-13.6240055v-1.297952c0-.6489766.3538703-3.4218753.766719-6.0177804 6.6645568-40.1775324 38.2769677-71.3283944 78.5002219-77.2281789l4.6592919-.7079741v-8.25969832-8.25969828l-1.238546.05899784c-.7667189 0-3.5387027.35398707-6.1927297.76697199zm-49.1879678 146.13766117v28.967942l-1.8283297-1.769935c-2.7130054-2.654903-7.9031027-9.203664-10.9699784-13.864494-7.313319-11.032597-13.0932001-27.139008-14.3907244-39.646551l-.2948919-2.654903h13.7419622 13.6829839zm39.9283624 11.799569v40.708513l-4.5413352-1.592941c-5.4849892-1.887931-10.2622379-4.011854-15.0984649-6.666757l-3.5387027-1.946929-.1179568-35.693696-.0589784-35.693696h11.677719 11.677719z"/></g></svg>
