<?xml version="1.0" encoding="UTF-8"?>
<svg width="200px" height="200px" viewBox="0 0 200 200" version="1.1" xmlns="http://www.w3.org/2000/svg" xmlns:xlink="http://www.w3.org/1999/xlink">
    <title>logo-mark220-dark</title>
    <g id="Page-1" stroke="none" stroke-width="1" fill="none" fill-rule="evenodd" opacity="0.5">
        <g id="logo-mark220-dark" transform="translate(100.0025, 100) scale(-1, 1) translate(-100.0025, -100)translate(0.0025, 0)" fill="#004D94" fill-rule="nonzero">
            <g id="logo-mark22" transform="translate(0, 0)">
                <g id="Shape" transform="translate(100, 100) scale(-1, 1) translate(-100, -100)translate(-0, 0)">
                    <path d="M199.940118,97.8435217 C199.68208,86.3927999 198.391891,79.0411691 194.82544,68.6954197 C184.024715,37.471039 158.055053,13.4111567 125.357976,4.33968989 C121.201724,3.17234005 113.497453,1.62181429 109.792767,1.20299412 L105.433771,0.73961861 L105.433771,10.0427731 C105.433771,13.847799 105.433771,15.5854571 105.553575,16.6102299 C105.673378,17.6706469 106.042003,18.9271075 107.820621,19.2211727 C108.115521,19.265728 109.249045,19.4795937 110.659037,19.7380146 L112.815496,20.1301016 C132.094606,23.5608626 150.295487,34.1472108 162.745811,49.1712707 C171.979879,60.3101052 178.255727,74.2024595 180.40297,88.2819462 C180.495126,88.8968098 180.596498,89.440385 180.679439,89.9304937 C180.771595,90.4740688 180.872967,91.0711103 180.919045,91.4810194 C180.25552,91.5344858 179.085134,91.5255748 177.859454,91.5166637 C177.168282,91.5166637 176.394168,91.4988416 175.518683,91.4988416 L169.887929,91.4988416 L169.832635,91.0176439 C168.689897,81.6966673 164.284823,70.0409909 158.875244,62.0210301 C152.396652,52.4594546 143.752386,44.4305828 133.891655,38.8166102 C126.804831,34.7798966 116.464888,31.0907147 110.33649,30.4134735 L105.811612,29.9679202 L105.811612,48.0484762 L108.935713,48.5385849 C113.202552,49.206915 121.533487,52.6020317 126.408559,55.6585279 C134.398515,60.7111032 141.605142,68.3835323 145.678454,76.1628943 C147.853344,80.3510961 149.82549,86.14329 150.903719,91.4988416 L105.074362,91.4988416 L105.074362,109.552664 L129.836775,109.552664 C142.185728,109.552664 148.332557,109.552664 150.747053,109.668508 C150.424506,111.388344 149.659608,114.364641 148.774907,116.877562 C142.913763,133.746213 127.726395,147.397968 110.096883,151.648547 L105.452203,152.717876 L105.452203,170.887542 L108.96336,170.441989 C109.838845,170.317234 112.382361,169.773659 114.32686,169.319194 C142.618862,162.725004 164.773251,139.627517 169.46401,111.824987 L169.841851,109.543753 L180.836105,109.543753 L180.808458,109.757619 C180.439832,112.956692 178.992978,119.818214 177.933179,123.346997 C174.901235,133.478881 168.920287,144.332561 161.944051,152.370344 C158.681716,156.112992 153.023315,161.513099 149.595099,164.177508 C139.494762,171.947959 125.901699,177.998574 113.248631,180.360007 C110.345705,180.903582 108.318265,181.224381 108.023365,181.251114 C105.442987,181.251114 105.442987,182.480841 105.442987,190.456247 L105.442987,200 L108.677675,199.447514 C108.981791,199.385136 109.875708,199.269292 110.741978,199.153449 C111.258053,199.08216 111.801776,199.010872 112.317851,198.939583 C119.662713,197.923721 129.3207,195.303867 136.932815,192.247371 C168.229115,179.593655 191.074676,152.789164 198.041697,120.548922 C199.691296,112.885404 200.170509,107.155587 199.949334,97.8524327 L199.940118,97.8435217 Z M194.419952,119.818214 C187.692538,150.908929 165.667168,176.759936 135.495176,188.959187 C128.150314,191.908751 118.842522,194.439494 111.774129,195.4108 C111.258053,195.482089 110.723546,195.553377 110.216686,195.624666 C109.792767,195.678132 109.424142,195.731599 109.120026,195.776154 L109.120026,190.465158 C109.120026,188.121547 109.120026,185.875958 109.184535,184.699697 C110.612959,184.494742 112.833927,184.084833 113.939803,183.879879 C127.14581,181.411513 141.328673,175.102477 151.880577,166.984495 C155.465459,164.204242 161.363466,158.581358 164.75482,154.687222 C172.044388,146.284085 178.292589,134.949207 181.462768,124.353948 C182.568644,120.673677 184.070793,113.518089 184.45785,110.167528 L184.946278,105.997148 L166.680888,105.997148 L165.814618,111.2725 C161.363466,137.667083 140.314953,159.606131 113.451375,165.870611 C111.737266,166.271609 110.078452,166.619141 109.129241,166.806273 L109.129241,155.542684 L110.963153,155.123864 C129.799913,150.58813 146.019432,136.018535 152.258418,118.036001 C153.336647,114.979505 154.599189,110.122973 154.599189,108.447692 C154.599189,106.219925 152.350574,106.157548 149.751765,106.077348 C146.793546,105.997148 141.125929,105.997148 129.836775,105.997148 L108.760616,105.997148 L108.760616,95.0721796 L155.327224,95.0721796 L154.709777,91.8107289 C153.622332,85.9026911 151.419795,79.2995901 148.968436,74.5678132 C144.60944,66.2448761 136.932815,58.0645161 128.417567,52.6733203 C123.100145,49.340581 114.271566,45.7672429 109.525514,45.0276243 L109.497867,33.9244341 L109.940217,33.9689895 C115.515677,34.5838531 125.422486,38.1393691 132.020881,41.8998396 C141.402398,47.2464801 149.622746,54.883265 155.797222,63.990376 C160.84739,71.4756728 165.11423,82.7749064 166.183244,91.4631973 L166.63481,95.0810907 L175.527898,95.0810907 C176.394168,95.0810907 177.159066,95.0810907 177.841023,95.0989128 C181.287671,95.1256461 182.863545,95.1434682 183.932558,93.9404741 C184.927847,92.8176796 184.688241,91.4453752 184.328831,89.3601854 C184.24589,88.8968098 184.153734,88.3710569 184.070793,87.7829264 C181.831393,73.088576 175.288292,58.5902691 165.648737,46.961326 C152.645474,31.2778471 133.642833,20.2192123 113.515884,16.6458742 L111.377857,16.2537872 C110.520802,16.093388 109.76512,15.959722 109.212182,15.8527892 C109.156888,14.8636607 109.156888,12.8943147 109.156888,10.0605953 L109.156888,4.7228658 L109.414926,4.749599 C112.594321,5.1060417 119.966829,6.53181251 124.371903,7.7704509 C155.907809,16.5211192 180.946692,39.7255391 191.360361,69.8360364 C194.797793,79.7986099 196.041904,86.8918196 196.290726,97.9326323 C196.502686,106.941722 196.041904,112.466583 194.456815,119.818214 L194.419952,119.818214 Z M96.7802889,0 L96.7802889,18.1072893 L90.9467914,18.9805739 C54.5911075,24.1579041 26.1240081,51.3455712 20.1061978,86.6155765 C19.7836505,88.4958118 19.5532596,90.1978257 19.4518876,91.0978435 L40.9058881,91.0978435 L40.9058881,60.1318838 L43.4770506,56.6922117 C44.8686116,54.9010872 48.4258471,51.1138834 51.264263,48.3960078 L59.7150011,40.2512921 L59.9085295,91.1067546 L77.7684319,91.1067546 L77.8329414,62.8764926 L77.943529,31.5451791 L82.1735059,30.3154518 C84.8460404,29.5847443 89.7118961,28.497594 93.2875629,27.9272857 L96.7802889,27.2856888 L96.7802889,199.812868 L91.6840422,199.402958 C89.8224838,199.287115 86.0993668,198.725717 83.5927139,198.24452 C63.6777246,194.49296 46.2048788,185.653181 31.6810366,171.983604 C15.5813205,156.861522 5.77588385,139.155231 1.70257276,117.848868 C-3.73465245,89.3869186 3.98805048,59.8734628 22.9077511,36.8650864 C26.1885175,32.9174835 34.2429833,25.1024773 38.2978632,21.9212262 C52.757196,10.7289253 69.8798476,3.42184994 87.8319064,0.78417394 L87.841122,0.78417394 C88.2215435,0.72856888 89.3493604,0.5662021 90.5407059,0.41237626 L91.1385067,0.33670889 C92.2325716,0.20124755 93.2842453,0.08911068 93.766776,0.08911068 L96.7802889,0 Z M93.0940345,3.71591517 C92.2001178,3.79611477 90.5965972,3.99215826 88.3848446,4.31295669 L87.5050604,4.44597392 C70.5095924,7.09262611 54.3179186,14.0843198 40.6109878,24.7014792 C36.7035581,27.7579754 28.9439927,35.2967385 25.7830295,39.0928533 C7.54528596,61.2814115 0.0806208311,89.7522723 5.30588642,117.19836 C9.23174733,137.756193 18.6962055,154.83871 34.2245521,169.426127 C48.2231031,182.605596 65.0692856,191.124577 84.2746709,194.751381 C86.9656366,195.268223 90.3938532,195.758332 91.9236488,195.856354 L93.0663876,195.945464 L93.0663876,31.5719123 C89.7118961,32.1511317 85.4727036,33.1046159 83.1872259,33.7373017 L81.6021365,34.2006772 L81.5007645,62.8943147 L81.4270394,94.6800927 L56.2222751,94.6800927 L56.0563936,48.8059169 L53.8538567,50.926751 C50.8772062,53.7782926 47.5595773,57.3694529 46.4352697,58.8130458 L44.5829269,61.2992336 L44.5829269,94.6800927 L15.7195551,94.6800927 L15.7195551,91.7305293 C15.7195551,90.9018 16.1066118,88.1839244 16.4752372,86.0541793 C22.7510853,49.2336482 52.4622956,20.8608091 90.3846376,15.4517911 L93.0848189,15.0507931 L93.0940345,15.0597042 L93.0940345,3.71591517 Z M81.4454707,105.640706 L81.4454707,182.89075 L74.8009972,180.645161 C69.6863192,178.952058 65.1706576,177.018357 60.6089178,174.567813 L56.4158034,172.322224 L56.2222751,105.640706 L81.4454707,105.640706 Z M77.7592163,109.196222 L59.9177451,109.196222 L59.9822546,139.333452 L60.0836266,170.210301 L62.3875355,171.440029 C66.755747,173.79255 71.0778802,175.637141 75.9990298,177.267867 L77.7592163,177.864908 L77.7592163,109.196222 Z M44.5829269,105.640706 L44.5829269,163.482445 L39.7815806,159.026911 C37.2288494,156.612012 32.3814249,150.677241 29.4139901,146.319729 C22.5299101,136.134379 17.0834692,121.53805 15.8762209,109.980396 L15.4062235,105.640706 L44.5829269,105.640706 Z M40.9058881,109.205133 L19.4979658,109.205133 L19.544044,109.615042 C20.6775672,120.486544 26.0134204,134.770986 32.5012282,144.359294 C34.8051371,147.736589 38.3900195,152.245589 40.9058881,154.972376 L40.9058881,109.205133 Z"></path>
                </g>
            </g>
        </g>
    </g>
</svg>