<?xml version="1.0" encoding="UTF-8"?>
<svg width="82px" height="80px" viewBox="0 0 82 80" version="1.1" xmlns="http://www.w3.org/2000/svg" xmlns:xlink="http://www.w3.org/1999/xlink">
    <title>Artboard</title>
    <g id="Artboard" stroke="none" stroke-width="1" fill="none" fill-rule="evenodd">
        <path d="M35.1292227,79.710826 C28.1456695,78.6553407 21.4368316,75.6913067 15.8557725,71.2380264 C14.279774,69.9656606 11.1422356,66.8281222 9.86986976,65.2521236 C2.53930768,56.0708476 -0.49701981,44.1713356 1.61395073,32.7923369 C3.18994929,24.3050786 7.03596411,17.1335623 13.2821235,11.0898247 C18.9210174,5.62443521 25.7455249,2.06759443 33.4809307,0.56388939 C34.5074985,0.36146756 35.9244514,0.14458702 36.6040104,0.10121092 L37.8330001,7.10542736e-15 L37.8330001,34.3683354 L37.8330001,68.7366709 L37.2980281,68.63546 C35.9678275,68.4185794 34.0592788,67.9848184 32.9893348,67.6811856 L31.8326386,67.3341768 L31.7892625,55.0876559 L31.7603451,42.841135 L27.4950279,42.841135 L23.2297107,42.841135 L23.2007933,52.7164287 L23.1574172,62.5772637 L21.0464467,60.4807519 C19.8752918,59.3240557 18.5306325,57.8348093 18.0390366,57.1841677 L17.1570557,55.9696367 L17.1570557,49.4053859 L17.1570557,42.841135 L12.1688034,42.841135 L7.18055113,42.841135 L7.18055113,43.3182722 C7.18055113,43.5640701 7.31067945,44.5617206 7.46972518,45.5159949 C9.89878717,60.1915778 21.465749,71.5705765 36.1413319,73.7249232 L37.8330001,73.9851798 L37.8330001,76.9925899 L37.8330001,80 L37.3703216,79.9855413 C37.110065,79.9855413 36.0979558,79.855413 35.1292227,79.710826 Z M17.1570557,26.3292969 L17.1570557,15.7455268 L16.4919554,16.3817097 C15.494305,17.3504428 13.6146737,19.7361287 12.4868949,21.4422556 C9.82649366,25.4906922 7.70106441,31.3898428 7.23838594,35.944334 L7.13717502,36.9130671 L12.1543447,36.9130671 L17.1570557,36.9130671 L17.1570557,26.3292969 Z M31.7603451,22.0206037 L31.7603451,7.14259895 L30.0975943,7.72094705 C28.1022934,8.40050605 26.3383317,9.18127598 24.5888287,10.150009 L23.3020042,10.8584855 L23.2586281,23.8857763 L23.2297107,36.9130671 L27.4950279,36.9130671 L31.7603451,36.9130671 L31.7603451,22.0206037 Z" id="Shape" fill="#184B8F" fill-rule="nonzero" transform="translate(19.3951, 40) scale(-1, 1) rotate(-180) translate(-19.3951, -40)"></path>
        <path d="M45.3515253,76.9636377 C45.3515253,73.9996037 45.3515253,73.985145 45.6840754,73.9273102 C45.8575799,73.8983928 46.7540194,73.7248884 47.6649177,73.551384 C55.5015343,72.1055137 62.7453442,67.7245269 67.7914313,61.406074 C71.5217765,56.7359131 74.0375907,50.9524322 74.9051128,45.0532817 C75.2665804,42.6242197 75.5991306,42.898935 72.2591703,42.898935 L69.3963473,42.898935 L69.2951363,43.7375398 C68.8613753,47.4100501 67.1552484,52.1091284 65.087654,55.2900429 C62.5862985,59.121599 59.2897143,62.3025135 55.4726169,64.5580711 C52.7832983,66.1485284 48.763779,67.6377747 46.4793041,67.8980313 L45.4961123,67.9992423 L45.4961123,65.0062909 L45.4961123,62.0277982 L46.1178365,61.9265873 C47.8962569,61.6374132 51.2651345,60.2204604 53.2893529,58.9047185 C56.5281022,56.7792893 59.4632188,53.5549986 61.1404282,50.2294971 C62.0802439,48.3498658 62.9188486,45.7328407 63.338151,43.3760722 L63.4249032,42.898935 L54.3159207,42.898935 L45.2069383,42.898935 L45.2069383,39.934901 L45.2069383,36.9708671 L54.2436272,36.9708671 C63.0778943,36.9708671 63.2803162,36.9708671 63.2803162,36.6961517 C63.2803162,36.1611797 62.8465551,34.3249245 62.3983353,33.0091826 C59.9981907,25.8376663 53.8532423,20.1120201 46.6238911,18.3046824 L45.3515253,18.0010496 L45.3515253,14.9791808 L45.3515253,11.9717707 L45.900956,12.0440642 C46.19013,12.0874403 47.115487,12.2898622 47.9540917,12.492284 C58.8414946,15.1237678 67.3432115,24.3050438 69.1505493,35.4237859 L69.3963473,36.9708671 L72.2880877,36.9708671 L75.1653695,36.9708671 L75.0641586,36.0744275 C74.9195716,34.7586856 74.3412235,31.8958625 73.9074624,30.3921575 C72.6929314,26.1846751 70.2638694,21.6012665 67.4588811,18.2468475 C66.1575979,16.6997664 63.8875817,14.4442088 62.4850875,13.31643 C58.4077335,10.063222 52.9857201,7.5474078 47.8384221,6.54975734 C46.7973955,6.3473355 45.7997451,6.17383108 45.6406993,6.17383108 C45.365984,6.17383108 45.3515253,6.07262016 45.3515253,3.13750359 L45.3515253,0.1011761 L45.7563689,0.17346961 C45.9732495,0.21684572 46.6383498,0.30359793 47.2311566,0.39035014 C50.0650622,0.79519381 53.8098661,1.85067908 56.7594414,3.07966878 C68.8179992,8.14021459 77.7390185,18.9987001 80.4283371,31.8958625 C81.06452,34.9611074 81.2524832,37.2744998 81.165731,41.0193037 C81.06452,45.6316298 80.5584655,48.5956637 79.1848887,52.7308526 C75.0063238,65.2665475 64.9286082,74.9538781 52.2772437,78.5974711 C50.5855755,79.089067 47.6215415,79.6963325 46.2624235,79.8553782 L45.3515253,79.9565891 L45.3515253,76.9636377 Z" id="Path" fill="#338DCF" fill-rule="nonzero" transform="translate(63.1963, 40.0289) scale(-1, 1) rotate(-180) translate(-63.1963, -40.0289)"></path>
    </g>
</svg>