<?xml version="1.0" encoding="UTF-8"?>
<svg width="201px" height="201px" viewBox="0 0 201 201" version="1.1" xmlns="http://www.w3.org/2000/svg" xmlns:xlink="http://www.w3.org/1999/xlink">
    <title>Shape</title>
    <g id="Page-1" stroke="none" stroke-width="1" fill="none" fill-rule="evenodd" fill-opacity="0.5">
        <path d="M129.961743,200.016 L70.7662259,200.016 C68.4302289,200.016 66.5343473,198.071169 66.5343473,195.665147 L66.5343473,158.922196 L35.2311416,176.660622 C33.1829124,177.817949 30.6099302,177.05655 29.4842505,174.946386 L0.897910898,121.657142 C-0.232000676,119.55568 0.51280995,116.910361 2.56103917,115.748684 L32.0530008,99.0196547 L3.03500957,81.4509112 C2.06590938,80.8635461 1.36341754,79.9107094 1.08411355,78.7925402 C0.80480957,77.674371 0.965620955,76.4909391 1.53269268,75.4945938 L31.5663348,23.0450637 C32.1376384,22.0487184 33.0686517,21.3264769 34.1562445,21.0393206 C35.2353735,20.7521643 36.3949082,20.9174967 37.3640084,21.500511 L66.5385792,39.1649732 L66.5385792,4.36685277 C66.5385792,1.96518204 68.4344608,0.016 70.7704577,0.016 L129.965975,0.016 C132.306204,0.016 134.197854,1.96518204 134.197854,4.36685277 L134.197854,41.1141552 L165.501059,23.3757285 C167.540825,22.2227525 170.118039,22.9841518 171.24795,25.0856136 L199.842754,78.3748583 C200.972665,80.4763202 200.227855,83.1259896 198.179625,84.2833164 L168.683432,101.012345 L197.692959,118.58979 C199.707334,119.808029 200.37597,122.475102 199.191044,124.546108 L169.148939,176.995638 C168.581867,177.991983 167.650854,178.709874 166.563261,178.99703 C165.484132,179.279836 164.328829,179.123205 163.355497,178.53584 L134.18939,160.867027 L134.18939,195.665147 C134.193622,198.071169 132.301972,200.016 129.961743,200.016 Z M74.9981044,191.314294 L125.729865,191.314294 L125.729865,153.253034 C125.729865,151.695429 126.542385,150.250946 127.862731,149.476494 C129.183077,148.702042 130.808119,148.710744 132.111537,149.50695 L164.007206,168.829087 L189.753955,123.880427 L157.993707,104.636606 C156.681824,103.84475 155.890463,102.387215 155.911622,100.829609 C155.932782,99.2720042 156.766462,97.8362228 158.099504,97.0835252 L190.388737,78.7707859 L165.877696,33.0955336 L132.001509,52.291496 C130.693858,53.031141 129.102672,53.0093867 127.807717,52.2262332 C126.516994,51.4430797 125.729865,50.0203509 125.729865,48.480149 L125.729865,8.71770553 L74.9981044,8.71770553 L74.9981044,46.7746147 C74.9981044,48.3365708 74.1855837,49.7767031 72.8652376,50.5511549 C71.5448915,51.3212558 69.924082,51.3082033 68.6206634,50.5250498 L36.716531,31.2072635 L10.9697819,76.1602743 L42.7384942,95.3910435 C44.0503765,96.1828987 44.8459697,97.6404344 44.8248103,99.2023905 C44.8036509,100.764347 43.965739,102.195777 42.6369291,102.952826 L10.3519276,121.265565 L34.8545044,166.940817 L68.7264604,147.744855 C70.0383427,147.00521 71.6379928,147.031315 72.9244839,147.810118 C74.210975,148.597622 75.0023363,150.020351 75.0023363,151.556202 L75.0023363,191.314294 L74.9981044,191.314294 Z" id="Shape" fill="#004D94" fill-rule="nonzero"></path>
    </g>
</svg>