<?xml version="1.0" encoding="UTF-8"?>
<svg width="75px" height="75px" viewBox="0 0 75 75" version="1.1" xmlns="http://www.w3.org/2000/svg" xmlns:xlink="http://www.w3.org/1999/xlink">
    <title>Group 3</title>
    <g id="Page-1" stroke="none" stroke-width="1" fill="none" fill-rule="evenodd">
        <g id="Group-3" fill="#184B8F" fill-rule="nonzero">
            <g id="Group-2-Copy">
                <path d="M32.0773505,74.7288993 C25.5218934,73.7393819 19.2243114,70.9606 13.9853747,66.7856497 C12.5059858,65.5928068 9.56078046,62.6513645 8.36641147,61.1738659 C1.48521737,52.5664197 -1.36498137,41.4106271 0.616585375,30.7428158 C2.09597424,22.7860112 5.70622598,16.0627146 11.569492,10.3967106 C16.8627182,5.27290801 23.2688792,1.93836978 30.5300998,0.528646304 C31.4937384,0.338875836 32.8238311,0.135550334 33.4617327,0.0948852341 L34.6153846,-6.83214169e-15 L34.6153846,32.2203145 L34.6153846,64.440629 L34.1132067,64.3457437 C32.8645482,64.1424182 31.0729948,63.7357672 30.068639,63.4511115 L28.982849,63.1257907 L28.9421319,51.6446774 L28.9149871,40.1635641 L24.9111365,40.1635641 L20.9072859,40.1635641 L20.8801412,49.4216519 L20.839424,58.6661847 L18.8578573,56.7007049 C17.7584949,55.6163022 16.4962641,54.2201337 16.0348033,53.6101572 L15.2068884,52.4715344 L15.2068884,46.3175492 L15.2068884,40.1635641 L10.5244191,40.1635641 L5.84194973,40.1635641 L5.84194973,40.6108802 C5.84194973,40.8413157 5.9641011,41.776613 6.11339723,42.6712453 C8.39355622,56.4296042 19.2514562,67.0974155 33.0274167,69.1171155 L34.6153846,69.3611061 L34.6153846,72.180553 L34.6153846,75 L34.1810686,74.986445 C33.9367659,74.986445 32.9866996,74.8644497 32.0773505,74.7288993 L32.0773505,74.7288993 Z M15.1232263,24.7197309 L15.1232263,14.7982063 L14.4986082,15.3945821 C13.561681,16.3026998 11.796456,18.539109 10.7373209,20.1384805 C8.23884853,23.9335992 6.24278634,29.4636293 5.8082694,33.7331379 L5.71321882,34.6412556 L10.4250119,34.6412556 L15.1232263,34.6412556 L15.1232263,24.7197309 Z M28.9021658,20.6770778 L28.9021658,6.7264574 L27.3300338,7.26875557 C25.4434754,7.90595591 23.7756484,8.63805844 22.1214921,9.54640787 L20.9047987,10.2107231 L20.8637865,22.4259894 L20.8364451,34.6412556 L24.8693055,34.6412556 L28.9021658,34.6412556 L28.9021658,20.6770778 Z" id="Shape" transform="translate(17.3077, 37.5) scale(-1, 1) rotate(-180) translate(-17.3077, -37.5)"></path>
                <path d="M41.481398,72.1890277 C41.481398,69.4052146 41.481398,69.391635 41.7924596,69.3373167 C41.9547526,69.3101575 42.7932664,69.1472026 43.6453046,68.9842477 C50.975538,67.6262901 57.7512705,63.5116784 62.4712916,57.5774036 C65.960591,53.1912004 68.3138394,47.7593699 69.1253043,42.2189028 C69.4634147,39.9375339 69.7744763,40.1955459 66.6503362,40.1955459 L63.9725018,40.1955459 L63.8778309,40.9831613 C63.4720984,44.4323737 61.8762173,48.845736 59.9422258,51.8332428 C57.6025019,55.4318305 54.518935,58.4193373 50.9484892,60.5377512 C48.4329478,62.0315046 44.6731602,63.430201 42.5363025,63.6746334 L41.6166422,63.7696904 L41.6166422,60.9587181 L41.6166422,58.1613254 L42.1981921,58.0662683 C43.8616952,57.7946768 47.0128842,56.4638783 48.9063024,55.2281369 C51.9357716,53.2319392 54.681228,50.2036936 56.2500603,47.0803911 C57.1291473,45.3150462 57.9135634,42.8571429 58.3057715,40.6436719 L58.386918,40.1955459 L49.8665359,40.1955459 L41.3461538,40.1955459 L41.3461538,37.4117328 L41.3461538,34.6279196 L49.7989138,34.6279196 C58.062332,34.6279196 58.2516738,34.6279196 58.2516738,34.3699077 C58.2516738,33.8674633 57.8459414,32.1428571 57.4266845,30.9071157 C55.1816314,24.1716458 49.4337546,18.7941336 42.6715466,17.0966866 L41.481398,16.8115155 L41.481398,13.973384 L41.481398,11.1488322 L41.9953258,11.21673 C42.2658141,11.2574688 43.1313768,11.4475828 43.9157929,11.6376969 C54.0996781,14.1091798 62.0520347,22.7322108 63.7425867,33.1749049 L63.9725018,34.6279196 L66.677385,34.6279196 L69.3687438,34.6279196 L69.2740729,33.7859859 C69.1388287,32.5502444 68.5978521,29.8614883 68.1921196,28.4492124 C67.0560687,24.4975557 64.7839668,20.19283 62.1602301,17.0423683 C60.9430326,15.5893536 58.8196993,13.4709397 57.507831,12.4117328 C53.6939457,9.35632808 48.6222897,6.9934818 43.8075976,6.05649104 C42.8338396,5.86637697 41.9006549,5.70342205 41.7518863,5.70342205 C41.4949224,5.70342205 41.481398,5.60836502 41.481398,2.85171103 L41.481398,0 L41.8600817,0.0678978816 C42.0629479,0.108636611 42.685071,0.190114068 43.2395721,0.271591526 C45.8903576,0.651819663 49.3931814,1.64312873 52.1521622,2.79739272 C63.4315252,7.55024443 71.7760898,17.7485062 74.2916312,29.8614883 C74.8867055,32.7403585 75.0625229,34.9130907 74.9813764,38.430201 C74.8867055,42.7620858 74.413351,45.545899 73.1285314,49.4296578 C69.2199752,61.2031505 59.7934573,70.3014666 47.9595933,73.7235198 C46.3772366,74.1852254 43.6047313,74.7555676 42.3334362,74.904943 L41.481398,75 L41.481398,72.1890277 Z" id="Path" transform="translate(58.1731, 37.5) scale(-1, 1) rotate(-180) translate(-58.1731, -37.5)"></path>
            </g>
        </g>
    </g>
</svg>